<?xml version="1.0" encoding="utf-8"?>
<!-- Generator: Adobe Illustrator 28.0.0, SVG Export Plug-In . SVG Version: 6.00 Build 0)  -->
<svg width="1rem" height="1rem" version="1.1" id="Capa_1" xmlns="http://www.w3.org/2000/svg" xmlns:xlink="http://www.w3.org/1999/xlink" x="0px" y="0px"
	 viewBox="0 0 480 480" style="enable-background:new 0 0 480 480;" xml:space="preserve">
<style type="text/css">
	.st0{fill:#444444;}
	.st1{fill:url(#SVGID_1_);}
	.st2{fill:url(#SVGID_00000036941218380997746270000009605322492078913932_);}
	.st3{fill:url(#SVGID_00000026130294473354517290000006657217207950966958_);}
	.st4{fill:url(#SVGID_00000049215956444682475740000000452620139390149779_);}
	.st5{fill:url(#SVGID_00000030450658624469854740000013472066569911797689_);}
	.st6{fill:url(#SVGID_00000096748669303747725350000006512656892706837161_);}
	.st7{fill:#FFFFFF;}
	.st8{fill:#66CCCC;}
	.st9{fill:#0075BE;}
	.st10{fill:#005889;}
	.st11{fill:url(#SVGID_00000173119250272674924210000014270890650358616235_);}
	.st12{fill:url(#SVGID_00000091731435089959623780000012987069240587845305_);}
	.st13{fill:url(#SVGID_00000145767124857573297320000017670590763079872951_);}
	.st14{fill:url(#SVGID_00000168824285153988385470000008406856611729264036_);}
	.st15{fill:url(#SVGID_00000027562788734498805100000013088117854106863277_);}
	.st16{fill:url(#SVGID_00000079488092539357647960000007110957827317773451_);}
	.st17{fill:url(#SVGID_00000093891725906632113110000002364393324797436563_);}
	.st18{fill:url(#SVGID_00000105384315713809284080000009894976028329197724_);}
	.st19{fill:url(#SVGID_00000075878232203454974270000005263481056641792129_);}
	.st20{fill:url(#SVGID_00000163063684928083726900000001955806636232088448_);}
	.st21{fill:url(#SVGID_00000086674767951137470670000000908847109401889716_);}
	.st22{fill:url(#SVGID_00000072977255016680238720000015642436681770053258_);}
	.st23{fill:url(#SVGID_00000062187939714838033290000013927035078973898914_);}
	.st24{fill:url(#SVGID_00000093173750149603055430000013639900719836808101_);}
	.st25{fill:url(#SVGID_00000155120061940056582460000009371414282424842136_);}
	.st26{fill:url(#SVGID_00000075863186040167851050000016607353367476872106_);}
	.st27{fill:url(#SVGID_00000112593133522734968080000009766085326438803608_);}
	.st28{fill:url(#SVGID_00000137111837538102419680000009112253117636594583_);}
	.st29{fill:url(#SVGID_00000177469824870907714490000005643455808550935959_);}
	.st30{fill:url(#SVGID_00000182521480430100811760000000793831222996821913_);}
	.st31{fill:url(#SVGID_00000121240964316433736730000000797605871384372654_);}
	.st32{fill:url(#SVGID_00000083771684276364843200000008935089869296562334_);}
	.st33{fill:url(#SVGID_00000032646817917735171800000005338132762836344208_);}
	.st34{fill:url(#SVGID_00000033340613984260041750000003203350430102285195_);}
	.st35{fill:url(#SVGID_00000103955025187352955310000013131680999728156041_);}
	.st36{fill:url(#SVGID_00000089539375657183924350000008599933526362383254_);}
	.st37{fill:url(#SVGID_00000108994659588181166160000009049933731112086179_);}
	.st38{fill:url(#SVGID_00000091732457057812191050000010449961654800863901_);}
	.st39{fill:url(#SVGID_00000152243945739143649870000015949239319621940887_);}
	.st40{fill:url(#SVGID_00000093872701690199276110000012130437610869193147_);}
	.st41{fill:url(#SVGID_00000004504536900810761610000017229302300414675351_);}
	.st42{fill:url(#SVGID_00000115488174730608597800000009708209721736219565_);}
	.st43{fill:url(#SVGID_00000138541482496942130010000012190145190716568209_);}
	.st44{fill:url(#SVGID_00000137843077141466821240000002031895095281092029_);}
	.st45{fill:url(#SVGID_00000049939924753090663900000010091374559729669556_);}
	.st46{fill:url(#SVGID_00000117667544342380522010000002918254426010084513_);}
	.st47{fill:url(#SVGID_00000151527536071311534710000007699514852919982225_);}
	.st48{fill:url(#SVGID_00000109709930337824203900000010228482286955745967_);}
	.st49{fill:url(#SVGID_00000176725990528383620630000011711305382413940129_);}
	.st50{fill:url(#SVGID_00000155137851347012286810000015068335200107551384_);}
	.st51{fill:url(#SVGID_00000023989919894658848660000007239664531947977380_);}
	.st52{fill:url(#SVGID_00000051353532514709481990000004679737002147928480_);}
	.st53{fill:url(#SVGID_00000090295763532422905000000016774647935756821155_);}
	.st54{fill:url(#SVGID_00000160158920513710819330000012313849284224785327_);}
	.st55{fill:url(#SVGID_00000106143228069042458600000016948386185935523463_);}
	.st56{fill:url(#SVGID_00000024681986417695972480000007372669612369753480_);}
	.st57{fill:url(#SVGID_00000178183372313261370350000015850300798169731486_);}
	.st58{fill:url(#SVGID_00000026872828525928830630000001043425366498416549_);}
</style>
<g>
	<linearGradient id="SVGID_1_" gradientUnits="userSpaceOnUse" x1="154.9503" y1="92.6794" x2="324.8561" y2="386.9648">
		<stop  offset="0" style="stop-color:#4CD8D8"/>
		<stop  offset="0.1016" style="stop-color:#45CFD6"/>
		<stop  offset="0.2704" style="stop-color:#31B5CF"/>
		<stop  offset="0.4844" style="stop-color:#128CC4"/>
		<stop  offset="0.5905" style="stop-color:#0075BE"/>
		<stop  offset="0.9944" style="stop-color:#005889"/>
	</linearGradient>
	<path class="st1" d="M239.9,409.79c-46.2-0.84-86.19-16.85-119.32-49.25c-20.98-20.52-35.06-45.26-43.72-73.19
		c-16.03-63.37-2.84-119.54,42.81-166.77c32.49-33.61,73.16-49.5,119.75-50.34c6.1-0.11,12.24,0.27,18.33,0.96
		c6.09,0.69,12.13,1.62,18.13,2.89c5.92,1.25,11.75,2.82,17.48,4.73c5.82,1.93,11.53,4.15,17.1,6.7c5.57,2.55,10.99,5.39,16.26,8.54
		c5.27,3.14,10.35,6.54,15.25,10.23c4.85,3.65,9.52,7.52,13.92,11.73c4.43,4.23,8.73,8.59,12.72,13.24
		c3.99,4.65,7.79,9.46,11.23,14.53c3.44,5.07,6.67,10.27,9.55,15.69c2.87,5.41,5.37,11,7.85,16.61c2.43,5.5,3.4,11.54,6.48,16.77
		c0.17,6.17,2.65,11.89,3.49,17.95c0.85,6.12,1.7,12.22,2.14,18.39c0.43,6.12,0.35,12.25,0.17,18.37
		c-0.18,6.17-0.84,12.31-1.81,18.42c-0.98,6.11-2.18,12.16-3.81,18.13c-1.62,5.96-3.53,11.84-5.8,17.6
		c-2.27,5.75-4.77,11.4-7.65,16.87c-2.87,5.48-6.03,10.79-9.45,15.93c-3.4,5.1-7.13,9.96-11.06,14.66
		c-3.97,4.74-8.2,9.25-12.67,13.52c-4.47,4.27-9.11,8.35-14.05,12.07c-4.94,3.71-10.02,7.23-15.32,10.43
		c-5.3,3.2-10.77,6.04-16.34,8.72c-5.58,2.68-11.36,4.84-17.18,6.89c-5.78,2.04-11.72,3.56-17.7,4.9
		c-6.03,1.35-12.13,2.4-18.27,3.02C252.28,409.32,246.11,409.82,239.9,409.79z M250.06,138.08c0,0,0.01,0,0.01,0
		c0,13.48,0.02,26.96-0.03,40.44c0,1.48,0.44,2.03,1.93,1.85c2.43-0.29,4.88-0.4,7.31-0.7c9.99-1.23,19.84-3.21,29.51-6.01
		c6.76-1.96,13.34-4.4,19.8-7.2c1.05-0.46,1.66-0.94,1.2-2.29c-3.47-10.1-7.73-19.84-13.12-29.07
		c-7.52-12.88-16.57-24.43-29.15-32.77c-4.67-3.1-9.42-6.27-15.41-6.4c-2.05-0.04-2.07-0.2-2.07,1.86
		C250.06,111.23,250.06,124.65,250.06,138.08z M229.16,138.26c0.01,0,0.01,0,0.02,0c0-9.43,0-18.86,0-28.29
		c0-4.05-0.05-8.1,0.01-12.15c0.02-1.43-0.52-1.87-1.89-1.79c-1.61,0.09-3.15,0.26-4.67,0.9c-9.11,3.81-16.72,9.65-23.45,16.79
		c-7.36,7.81-13.34,16.57-18.35,26.04c-4.24,8.02-7.73,16.37-10.7,24.93c-0.8,2.3-0.86,2.27,1.46,3.19
		c6.09,2.4,12.27,4.52,18.58,6.32c12.04,3.44,24.3,5.43,36.77,6.21c2.2,0.14,2.22,0.05,2.22-2.18
		C229.16,164.9,229.16,151.58,229.16,138.26z M285.76,248.31c0,0.02,0,0.04,0,0.06c-11.29,0-22.58,0.01-33.87-0.01
		c-1.08,0-1.83,0.12-1.83,1.52c0.03,12.36,0.03,24.71,0.01,37.07c0,1.1,0.42,1.45,1.5,1.52c7.76,0.53,15.46,1.52,23.11,2.9
		c8.86,1.6,17.51,4.06,26.11,6.65c3.8,1.15,7.45,2.83,11.13,4.38c1.35,0.57,1.86,0.27,2.22-1.12c1.35-5.15,2.47-10.35,3.47-15.58
		c2.21-11.47,3.36-23.05,3.95-34.7c0.13-2.68,0.06-2.69-2.56-2.69C307.92,248.31,296.84,248.31,285.76,248.31z M192.11,248.52
		c-10.49,0-20.99,0-31.48,0c-1.98,0-2.09,0.1-2.03,2.09c0.25,8.79,1.14,17.52,2.41,26.21c1.16,7.85,2.7,15.63,4.67,23.32
		c0.32,1.27,0.86,1.5,2.02,1.03c4.99-2.01,10.11-3.66,15.26-5.2c10.54-3.14,21.27-5.33,32.19-6.56c4.12-0.46,8.26-0.77,12.4-1.12
		c1.07-0.09,1.61-0.46,1.6-1.66c-0.03-12.2-0.03-24.4,0-36.6c0-1.18-0.46-1.67-1.59-1.64c-1.75,0.04-3.51,0.1-5.26,0.11
		C212.25,248.52,202.18,248.52,192.11,248.52z M250.08,344.62C250.08,344.62,250.08,344.62,250.08,344.62
		c-0.01,6.23-0.01,12.46-0.01,18.7c0,6.34,0.03,12.68,0,19.02c-0.01,1.15,0.21,1.89,1.58,1.7c2.21-0.31,4.46-0.32,6.55-1.26
		c3.26-1.47,6.42-3.12,9.4-5.09c10.5-6.94,18.52-16.26,25.35-26.67c6.19-9.43,10.93-19.61,15.01-30.11c0.48-1.24,0.19-1.83-1-2.28
		c-2.79-1.05-5.54-2.22-8.33-3.26c-6.74-2.51-13.67-4.36-20.67-5.99c-8.58-2-17.26-3.19-26.02-3.91c-1.48-0.12-1.9,0.26-1.89,1.77
		C250.11,319.69,250.08,332.15,250.08,344.62z M229.13,344.62C229.14,344.62,229.14,344.62,229.13,344.62
		c0.01-12.41,0.01-24.82,0.01-37.23c0-2.24-0.14-2.36-2.37-2.13c-5.4,0.57-10.8,1-16.18,1.83c-13.11,2.03-25.81,5.5-38.13,10.42
		c-1.07,0.43-1.16,0.87-0.8,1.89c3.63,10.11,8.16,19.79,13.82,28.92c6.83,10.99,14.87,20.94,25.64,28.34
		c4.81,3.3,9.67,6.66,15.79,7.18c2.2,0.19,2.2,0.25,2.2-1.98C229.13,369.45,229.13,357.03,229.13,344.62z M285.73,231.54
		C285.73,231.54,285.73,231.54,285.73,231.54c11.29,0.01,22.59-0.01,33.88,0.04c1.53,0.01,2.14-0.45,1.99-2.01
		c-0.17-1.8-0.27-3.61-0.31-5.42c-0.14-5.38-0.82-10.72-1.45-16.06c-0.95-8.09-2.45-16.1-4.32-24.04c-0.48-2.06-0.51-2.06-2.49-1.22
		c-7.5,3.21-15.2,5.88-23.07,8c-12.36,3.34-24.94,5.55-37.74,6.31c-1.54,0.09-2.2,0.6-2.19,2.32c0.09,9.96,0.04,19.93,0.04,29.89
		c0,2.16,0.01,2.17,2.25,2.17C263.46,231.54,274.59,231.54,285.73,231.54z M193.72,231.53
		C193.72,231.53,193.72,231.53,193.72,231.53c11.19,0.01,22.37-0.01,33.56,0.03c1.31,0,1.91-0.28,1.9-1.76
		c-0.05-10.23-0.04-20.45-0.01-30.68c0-1.21-0.37-1.65-1.63-1.73c-8.19-0.46-16.33-1.37-24.4-2.84c-9.44-1.72-18.71-4.11-27.8-7.19
		c-3.11-1.05-6.17-2.27-9.23-3.48c-1.01-0.4-1.46-0.15-1.67,0.88c-0.35,1.77-0.77,3.54-1.14,5.31c-2.73,13-4.3,26.14-4.71,39.42
		c-0.06,1.98,0.01,2.03,2.06,2.04C171.67,231.53,182.69,231.53,193.72,231.53z M363.49,248.29c0,0.01,0,0.02,0,0.03
		c-6.23,0-12.46,0.03-18.69-0.02c-1.61-0.01-2.29,0.52-2.31,2.2c-0.12,9.65-1.18,19.21-2.53,28.75
		c-1.52,10.72-3.73,21.28-6.69,31.68c-0.35,1.24-0.21,1.94,0.93,2.6c3.18,1.85,6.3,3.78,9.3,5.9c3.43,2.43,6.9,4.81,10.12,7.53
		c0.73,0.61,1.27,0.77,1.94-0.16c3.53-4.87,6.93-9.83,9.89-15.08c4.91-8.69,9.01-17.74,12.08-27.25c3.58-11.1,5.72-22.47,6.68-34.08
		c0.16-1.88-0.09-2.1-2.03-2.1C375.95,248.29,369.72,248.29,363.49,248.29z M116.67,248.53c-6.71,0-12.67-0.01-18.64,0
		c-2.07,0-2.13,0.08-2.08,2.19c0.01,0.27,0,0.53,0.03,0.8c0.88,9.56,2.52,18.99,5.18,28.23c3.04,10.59,7.23,20.7,12.57,30.33
		c2.76,4.99,5.88,9.76,9.16,14.42c0.66,0.94,1.24,1.63,2.53,0.62c6.32-4.99,13.06-9.38,20.05-13.37c0.96-0.55,1.19-1.1,0.9-2.18
		c-0.94-3.44-1.83-6.9-2.62-10.37c-3.57-15.61-5.53-31.43-6.3-47.41c-0.17-3.47-0.21-3.54-3.79-3.39
		C127.75,248.63,121.84,248.44,116.67,248.53z M363.45,231.55c6.18,0,12.36,0,18.53,0c2.26,0,2.4-0.14,2.22-2.33
		c-0.53-6.26-1.35-12.49-2.65-18.64c-3.98-18.82-11.29-36.23-22.18-52.11c-1.9-2.77-1.93-2.83-4.51-0.71
		c-6.18,5.08-12.73,9.63-19.53,13.83c-0.79,0.49-1.12,0.92-0.85,1.91c1.45,5.29,2.63,10.64,3.66,16.03
		c1.69,8.89,2.83,17.86,3.7,26.87c0.42,4.4,0.51,8.82,0.78,13.22c0.09,1.53,0.65,1.97,2.13,1.96
		C350.99,231.51,357.22,231.55,363.45,231.55z M116.6,231.52c6.34,0,12.68-0.03,19.02,0.02c1.27,0.01,1.84-0.34,1.82-1.7
		c-0.03-1.49,0.2-2.97,0.25-4.46c0.28-8.58,1.21-17.09,2.45-25.58c1.2-8.22,2.85-16.37,4.9-24.42c0.29-1.13,0.02-1.73-1-2.3
		c-7.55-4.21-14.62-9.15-21.31-14.62c-1.16-0.95-1.63-0.71-2.3,0.38c-1.62,2.63-3.38,5.18-4.95,7.83
		c-7.84,13.21-13.39,27.33-16.64,42.34c-1.47,6.78-2.39,13.63-2.93,20.54c-0.12,1.58,0.47,2.01,1.98,1.99
		C104.13,231.48,110.37,231.52,116.6,231.52z M172.84,112.24c-0.42,0.06-0.54,0.04-0.63,0.09c-1.31,0.7-2.64,1.38-3.93,2.13
		c-9.01,5.23-17.39,11.32-25.13,18.3c-3.49,3.14-6.69,6.56-9.95,9.92c-1.1,1.13-1.04,1.88,0.24,2.75c1.23,0.84,2.37,1.81,3.55,2.72
		c3.84,2.97,7.88,5.63,11.96,8.26c1.11,0.71,1.68,0.52,2.05-0.76c0.39-1.33,0.91-2.61,1.4-3.91c4.01-10.64,8.73-20.94,14.75-30.61
		C168.97,118.21,170.85,115.33,172.84,112.24z M307.64,112.26c-0.09,0.11-0.18,0.23-0.27,0.34c0.67,1.01,1.34,2.02,2.02,3.03
		c5.14,7.61,9.51,15.65,13.28,24.01c2.12,4.71,4.06,9.5,5.79,14.37c0.31,0.88,0.68,1.64,1.81,0.89c5.29-3.49,10.44-7.19,15.27-11.3
		c0.95-0.81,0.95-1.4,0.07-2.33c-8.78-9.31-18.54-17.42-29.41-24.17C313.42,115.37,310.62,113.63,307.64,112.26z M172.46,367.63
		c0.11-0.09,0.22-0.18,0.33-0.27c-0.46-0.69-0.91-1.39-1.38-2.08c-7.74-11.12-13.68-23.18-18.55-35.78
		c-0.78-2.01-0.76-2.08-2.6-0.94c-4.85,3-9.56,6.2-14.11,9.63c-1.01,0.76-1.02,1.14-0.15,2.03c6.92,7.13,14.47,13.51,22.66,19.12
		C163.1,362.37,167.68,365.17,172.46,367.63z M307.11,367.64c0.44-0.03,0.56-0.01,0.64-0.05c1.85-1.04,3.71-2.08,5.55-3.15
		c10.6-6.16,20.16-13.65,28.88-22.25c1.41-1.39,1.36-1.63-0.14-2.85c-4.23-3.42-8.74-6.44-13.28-9.42
		c-1.08-0.71-1.53-0.65-2.02,0.65c-3.33,8.71-7.35,17.11-12.02,25.19C312.4,359.77,309.88,363.64,307.11,367.64z"/>
</g>
</svg>
