<?xml version="1.0" encoding="utf-8"?>
<!-- Generator: Adobe Illustrator 28.0.0, SVG Export Plug-In . SVG Version: 6.00 Build 0)  -->
<svg width="1rem" height="1rem" version="1.1" id="Capa_1" xmlns="http://www.w3.org/2000/svg" xmlns:xlink="http://www.w3.org/1999/xlink" x="0px" y="0px"
	 viewBox="0 0 480 480" style="enable-background:new 0 0 480 480;" xml:space="preserve">
<style type="text/css">
	.st0{fill:#444444;}
	.st1{fill:url(#SVGID_1_);}
	.st2{fill:url(#SVGID_00000048499184333223346020000003520287419079635075_);}
	.st3{fill:url(#SVGID_00000022525315187938332680000011348464982452946103_);}
	.st4{fill:url(#SVGID_00000122680734128099503850000015806268973321282450_);}
	.st5{fill:url(#SVGID_00000104704292694953133830000005216397354055438783_);}
	.st6{fill:url(#SVGID_00000005964661616073117440000000690859545427709096_);}
	.st7{fill:#FFFFFF;}
	.st8{fill:#66CCCC;}
	.st9{fill:#0075BE;}
	.st10{fill:#005889;}
	.st11{fill:url(#SVGID_00000008112467534336057390000012671317498783476925_);}
	.st12{fill:url(#SVGID_00000019660908028892889320000008218753229650571672_);}
	.st13{fill:url(#SVGID_00000039126801456421094400000005324543647240864668_);}
	.st14{fill:url(#SVGID_00000084522140540655705470000017396864872632199608_);}
	.st15{fill:url(#SVGID_00000134229847298362910800000008960958010170268044_);}
	.st16{fill:url(#SVGID_00000108267763382461524080000006769645701346087316_);}
	.st17{fill:url(#SVGID_00000062159995220145682370000006266872158667922583_);}
	.st18{fill:url(#SVGID_00000036958520167036388760000003622179049950272159_);}
	.st19{fill:url(#SVGID_00000080887567883995163830000002192399435035246258_);}
	.st20{fill:url(#SVGID_00000124850252955901698360000007586745370735559058_);}
	.st21{fill:url(#SVGID_00000114792108270490654850000017386090168430615719_);}
	.st22{fill:url(#SVGID_00000005989756781351451990000005387491759120456635_);}
	.st23{fill:url(#SVGID_00000103980615622991933220000018358354365642298768_);}
	.st24{fill:url(#SVGID_00000146496921564219937190000014438784291169487796_);}
	.st25{fill:url(#SVGID_00000134212737781051152130000014979756317537763983_);}
	.st26{fill:url(#SVGID_00000033329534211975149760000006649509797658967169_);}
	.st27{fill:url(#SVGID_00000147928384216886086170000007624220535879411594_);}
	.st28{fill:url(#SVGID_00000152976884364292061410000011706109165981553796_);}
	.st29{fill:url(#SVGID_00000059297060367256741220000012451310732795628221_);}
	.st30{fill:url(#SVGID_00000000184965415571261890000015578604595757420181_);}
	.st31{fill:url(#SVGID_00000124883005540273400260000002487925315669132200_);}
	.st32{fill:url(#SVGID_00000085948377042091830710000007252428804161125026_);}
	.st33{fill:url(#SVGID_00000096029079675270200550000014692050204463101075_);}
	.st34{fill:url(#SVGID_00000111186696641244029100000014180474994634332322_);}
	.st35{fill:url(#SVGID_00000111910848018253708580000004434317261037699248_);}
	.st36{fill:url(#SVGID_00000182523878908933027690000017174962560002899642_);}
	.st37{fill:url(#SVGID_00000019678526983439465960000015619351900703802523_);}
	.st38{fill:url(#SVGID_00000176755566739930204520000017381425040332517257_);}
	.st39{fill:url(#SVGID_00000154402438095078126450000008095379491165873337_);}
	.st40{fill:url(#SVGID_00000179634773632479828910000000631128951032762023_);}
	.st41{fill:url(#SVGID_00000046334705279075235630000010424305627944742298_);}
	.st42{fill:url(#SVGID_00000124883051013509538370000009868968775490765990_);}
	.st43{fill:url(#SVGID_00000028326004491766401820000005866545227244598148_);}
	.st44{fill:url(#SVGID_00000109750382942240652710000011831399084791293854_);}
	.st45{fill:url(#SVGID_00000031201249955043860570000012557710312245557439_);}
	.st46{fill:url(#SVGID_00000000193000477303898050000012694467349301939092_);}
	.st47{fill:url(#SVGID_00000115495536725027582120000001048770535440897723_);}
	.st48{fill:url(#SVGID_00000057842548408492186130000003933451036294215568_);}
	.st49{fill:url(#SVGID_00000175323179568965282040000011466951518080385157_);}
	.st50{fill:url(#SVGID_00000123431655639960469280000015941987997859125140_);}
	.st51{fill:url(#SVGID_00000023991344814922155570000012517682423095909302_);}
	.st52{fill:url(#SVGID_00000008827859094400596750000009422601313136781954_);}
	.st53{fill:url(#SVGID_00000140010920838039880150000002259522542996290710_);}
	.st54{fill:url(#SVGID_00000123430437232795785920000005235208540499981497_);}
	.st55{fill:url(#SVGID_00000038386722896444579140000006539079038162945170_);}
	.st56{fill:url(#SVGID_00000127019576691218191660000006037290479478213529_);}
	.st57{fill:url(#SVGID_00000073691663191886172670000018362235108587190144_);}
	.st58{fill:url(#SVGID_00000086689019678897361390000001973885555819987865_);}
</style>
<g>
	<linearGradient id="SVGID_1_" gradientUnits="userSpaceOnUse" x1="196.5691" y1="38.0986" x2="286.636" y2="194.0991">
		<stop  offset="5.540901e-07" style="stop-color:#A690DD"/>
		<stop  offset="0.1757" style="stop-color:#9E6DDA"/>
		<stop  offset="0.5631" style="stop-color:#8915D2"/>
		<stop  offset="0.586" style="stop-color:#8810D2"/>
		<stop  offset="0.6908" style="stop-color:#8607D1"/>
		<stop  offset="1" style="stop-color:#6D09B5"/>
	</linearGradient>
	<path class="st1" d="M128.28,149.7c37.71,0.17,75.41,0.05,113.12,0.06c31.33,0,62.67,0,94,0c41.28,0,41.28,0,41.16-40.62
		c-0.08-24.01-3.07-26.97-27.99-26.99c-65.85-0.05-131.71-0.02-197.56-0.02c-45.53,0-45.53,0-44.41,45.74
		C107.03,145.35,111.01,149.62,128.28,149.7z M233.13,108.6c4.9,0.09,7.31,3.34,7.94,7.96c-1.03,4.74-3.48,7.72-8.63,7.18
		c-4.15-0.43-6.8-2.65-6.8-7.1C225.63,111.71,228.05,108.51,233.13,108.6z M190.99,108.44c5.3-0.2,6.86,3.79,7.88,7.42
		c-0.81,5.7-3.75,8.2-8.67,7.95c-4.37-0.22-6.71-3.18-6.85-7.23C183.18,111.69,186.09,108.63,190.99,108.44z M148.4,108.51
		c5.23-0.3,7.48,2.84,8.17,7.81c-0.41,4.7-2.95,7.72-8,7.44c-4.96-0.27-7.74-3.75-7.51-8.37
		C141.27,111.5,144.14,108.75,148.4,108.51z"/>
	
		<linearGradient id="SVGID_00000161607312848897818310000017299796641188676237_" gradientUnits="userSpaceOnUse" x1="196.5791" y1="207.1404" x2="287.1618" y2="364.0343">
		<stop  offset="5.540901e-07" style="stop-color:#A690DD"/>
		<stop  offset="0.1757" style="stop-color:#9E6DDA"/>
		<stop  offset="0.5631" style="stop-color:#8915D2"/>
		<stop  offset="0.586" style="stop-color:#8810D2"/>
		<stop  offset="0.6908" style="stop-color:#8607D1"/>
		<stop  offset="1" style="stop-color:#6D09B5"/>
	</linearGradient>
	<path style="fill:url(#SVGID_00000161607312848897818310000017299796641188676237_);" d="M272.07,318.74
		c20.13,1.17,40.38,0.08,60.58,0.34c49.7,0.64,43.78-0.33,43.87-44.27c0.04-19.18-4.1-23.41-23.39-23.51
		c-36.66-0.2-73.33-0.06-109.99-0.06c-30.82,0-61.64-0.02-92.46,0c-45.33,0.02-45.33,0.03-44.07,46.01
		c0.47,17.26,4.62,21.59,22.02,21.73c27.11,0.21,54.26,1.01,81.31-0.31c6.87-0.34,11.98,0.36,15.27,2.6v31.5h13.22
		c2.15,0.19,4.52,0.16,7.05,0.01c0.03,0,0.05-0.01,0.07-0.01h9.27v-6.48c0.34-1.78,0.23-3.74,0-5.69v-14.83
		C256.83,319.92,262.47,318.18,272.07,318.74z M148.43,292.89c-4.88-0.73-7.31-3.79-7.08-8.57c0.2-4.26,3.17-6.64,7.18-6.74
		c4.83-0.12,8.07,2.69,8.01,7.62C156.48,290.02,153.44,292.69,148.43,292.89z M190.17,292.71c-4.74-0.8-7.62-3.9-6.72-8.87
		c0.7-3.89,3.37-6.63,7.72-6.45c5.07,0.2,7.41,3.26,7.59,8.01C197.63,290.07,195.46,293.6,190.17,292.71z M232.91,277.47
		c4.83,0.25,8.16,2.67,8.11,7.47c-0.05,4.65-3.28,7.69-8,7.72c-4.01,0.03-6.75-2.41-7.11-6.66
		C225.48,280.97,228.37,278.5,232.91,277.47z"/>
	
		<linearGradient id="SVGID_00000067211383972377029780000012821437228640162994_" gradientUnits="userSpaceOnUse" x1="196.5335" y1="122.5488" x2="286.6632" y2="278.658">
		<stop  offset="5.540901e-07" style="stop-color:#A690DD"/>
		<stop  offset="0.1757" style="stop-color:#9E6DDA"/>
		<stop  offset="0.5631" style="stop-color:#8915D2"/>
		<stop  offset="0.586" style="stop-color:#8810D2"/>
		<stop  offset="0.6908" style="stop-color:#8607D1"/>
		<stop  offset="1" style="stop-color:#6D09B5"/>
	</linearGradient>
	<path style="fill:url(#SVGID_00000067211383972377029780000012821437228640162994_);" d="M348.82,166.47
		c-65.81-0.09-131.62-0.05-197.42-0.07c-45.57-0.01-45.57-0.01-44.8,45.52c0.31,18.25,4.12,22.27,22.88,22.38
		c37.22,0.2,74.44,0.06,111.67,0.07c31.37,0.01,62.75,0.01,94.12,0.01c41.37,0,41.37,0,41.29-40.56
		C376.51,169.56,373.55,166.5,348.82,166.47z M148.12,208.28c-4.26-0.13-6.54-3.07-6.8-7.12c-0.32-4.99,2.6-8.08,7.33-8.24
		c4.9-0.16,7.31,3.22,7.76,8.11C155.8,205.8,152.91,208.43,148.12,208.28z M191.1,208.66c-4.75-0.62-7.63-3.23-7.68-8.18
		c-0.04-4.28,2.46-6.94,6.64-7.36c4.97-0.5,8.1,2.03,8.5,7.06C198.96,205.27,195.85,207.72,191.1,208.66z M233.43,208.27
		c-4.77,0.14-7.7-2.85-7.75-7.86c-0.05-4.32,2.37-6.81,6.56-7.23c4.94-0.5,7.6,2.34,8.96,6.36
		C240.67,204.75,238.19,208.13,233.43,208.27z"/>
	
		<linearGradient id="SVGID_00000008852021120219521870000005168768098121289624_" gradientUnits="userSpaceOnUse" x1="229.8897" y1="365.5629" x2="250.1103" y2="400.5862">
		<stop  offset="5.540901e-07" style="stop-color:#A690DD"/>
		<stop  offset="0.1757" style="stop-color:#9E6DDA"/>
		<stop  offset="0.5631" style="stop-color:#8915D2"/>
		<stop  offset="0.586" style="stop-color:#8810D2"/>
		<stop  offset="0.6908" style="stop-color:#8607D1"/>
		<stop  offset="1" style="stop-color:#6D09B5"/>
	</linearGradient>
	
		<rect x="225.2" y="368.27" style="fill:url(#SVGID_00000008852021120219521870000005168768098121289624_);" width="29.61" height="29.61"/>
	
		<linearGradient id="SVGID_00000094604866207511022100000013694661443597329817_" gradientUnits="userSpaceOnUse" x1="310.2464" y1="343.5869" x2="355.8429" y2="422.5623">
		<stop  offset="5.540901e-07" style="stop-color:#A690DD"/>
		<stop  offset="0.1757" style="stop-color:#9E6DDA"/>
		<stop  offset="0.5631" style="stop-color:#8915D2"/>
		<stop  offset="0.586" style="stop-color:#8810D2"/>
		<stop  offset="0.6908" style="stop-color:#8607D1"/>
		<stop  offset="1" style="stop-color:#6D09B5"/>
	</linearGradient>
	
		<rect x="267.49" y="368.27" style="fill:url(#SVGID_00000094604866207511022100000013694661443597329817_);" width="131.11" height="29.61"/>
	
		<linearGradient id="SVGID_00000132062062722614526840000016357971724464820357_" gradientUnits="userSpaceOnUse" x1="124.1571" y1="343.5869" x2="169.7536" y2="422.5623">
		<stop  offset="5.540901e-07" style="stop-color:#A690DD"/>
		<stop  offset="0.1757" style="stop-color:#9E6DDA"/>
		<stop  offset="0.5631" style="stop-color:#8915D2"/>
		<stop  offset="0.586" style="stop-color:#8810D2"/>
		<stop  offset="0.6908" style="stop-color:#8607D1"/>
		<stop  offset="1" style="stop-color:#6D09B5"/>
	</linearGradient>
	
		<rect x="81.4" y="368.27" style="fill:url(#SVGID_00000132062062722614526840000016357971724464820357_);" width="131.11" height="29.61"/>
</g>
</svg>
