<?xml version="1.0" encoding="utf-8"?>
<!-- Generator: Adobe Illustrator 28.0.0, SVG Export Plug-In . SVG Version: 6.00 Build 0)  -->
<svg width="1rem" height="1rem" version="1.1" id="Capa_1" xmlns="http://www.w3.org/2000/svg" xmlns:xlink="http://www.w3.org/1999/xlink" x="0px" y="0px"
	 viewBox="0 0 480 480" style="enable-background:new 0 0 480 480;" xml:space="preserve">
<style type="text/css">
	.st0{fill:#444444;}
	.st1{fill:url(#SVGID_1_);}
	.st2{fill:url(#SVGID_00000099625537232340889920000010271984039717253519_);}
	.st3{fill:url(#SVGID_00000093879948330200694580000001392180279063113915_);}
	.st4{fill:url(#SVGID_00000178903538273398846260000008571311197094382009_);}
	.st5{fill:url(#SVGID_00000043444002940250106250000007976711440614715780_);}
	.st6{fill:url(#SVGID_00000086650384241567443410000016420022986191682482_);}
	.st7{fill:#FFFFFF;}
	.st8{fill:#66CCCC;}
	.st9{fill:#0075BE;}
	.st10{fill:#005889;}
	.st11{fill:url(#SVGID_00000178164395363790737260000016040542690281756323_);}
	.st12{fill:url(#SVGID_00000033329238847390052100000016595726542053173692_);}
	.st13{fill:url(#SVGID_00000041989604163979421350000000502478421143828925_);}
	.st14{fill:url(#SVGID_00000092427819519397835170000003781857913589639297_);}
	.st15{fill:url(#SVGID_00000088097881858617289920000005181787832370539427_);}
	.st16{fill:url(#SVGID_00000000195400353329513260000012165987526051250309_);}
	.st17{fill:url(#SVGID_00000083069551802737974660000000504781785913922183_);}
	.st18{fill:url(#SVGID_00000160907453178416098540000002598262960772446121_);}
	.st19{fill:url(#SVGID_00000063614567432405572740000003351564544287700384_);}
	.st20{fill:url(#SVGID_00000160886623358325023260000005139319239325693324_);}
	.st21{fill:url(#SVGID_00000173858236610539871320000000288572475802723491_);}
	.st22{fill:url(#SVGID_00000081622775016849114170000000287657838867789757_);}
	.st23{fill:url(#SVGID_00000014600180245760750000000018036837557537605553_);}
	.st24{fill:url(#SVGID_00000007396876016593538800000004666457030668448643_);}
	.st25{fill:url(#SVGID_00000029033067629929843810000004082676010248549558_);}
	.st26{fill:url(#SVGID_00000168085850280313505970000002871860677658083243_);}
	.st27{fill:url(#SVGID_00000155113635656835757480000009938096670924029094_);}
	.st28{fill:url(#SVGID_00000140011635294974677600000011180078493199216575_);}
	.st29{fill:url(#SVGID_00000080912128045423705510000010004101268267799719_);}
	.st30{fill:url(#SVGID_00000132797864820333565690000014934312102547237301_);}
	.st31{fill:url(#SVGID_00000174570273551666284440000012569823345527055252_);}
	.st32{fill:url(#SVGID_00000116914517599272654670000013344782057820964279_);}
	.st33{fill:url(#SVGID_00000020367656774349441750000002276484810564052895_);}
	.st34{fill:url(#SVGID_00000177474654326225219460000007814217645559901879_);}
	.st35{fill:url(#SVGID_00000127017945394937677470000008844803491718017451_);}
	.st36{fill:url(#SVGID_00000012463125006982183260000010277724685861318332_);}
	.st37{fill:url(#SVGID_00000061468138591962676970000002880713505134450576_);}
	.st38{fill:url(#SVGID_00000092457590234577443560000001840366227935249565_);}
	.st39{fill:url(#SVGID_00000137852217983708119670000007079736998177741201_);}
	.st40{fill:url(#SVGID_00000031894108652414584170000003835674605827292585_);}
	.st41{fill:url(#SVGID_00000037651443838332140450000001674920352417968801_);}
	.st42{fill:url(#SVGID_00000119091010726574237950000008390149209363548595_);}
	.st43{fill:url(#SVGID_00000103986924379960588000000002296528061322146228_);}
	.st44{fill:url(#SVGID_00000146482790124037752690000004019069284886423439_);}
	.st45{fill:url(#SVGID_00000123440319217114975250000006586600918158496931_);}
	.st46{fill:url(#SVGID_00000060753090436401321180000012529384999109255834_);}
	.st47{fill:url(#SVGID_00000030450017888544427370000017759094028424564649_);}
	.st48{fill:url(#SVGID_00000078003237113456791130000015257247875818915987_);}
	.st49{fill:url(#SVGID_00000089542951708384837430000005007074825886886325_);}
	.st50{fill:url(#SVGID_00000105391862011435162800000003610188520164493243_);}
	.st51{fill:url(#SVGID_00000155135208227990719630000001871471185166179502_);}
	.st52{fill:url(#SVGID_00000179631226746097091080000006157225800863398304_);}
	.st53{fill:url(#SVGID_00000151515988241526706480000015816852163991734693_);}
	.st54{fill:url(#SVGID_00000092436063999959194470000007735311364487247261_);}
	.st55{fill:url(#SVGID_00000157300075960323935390000009576170328111315599_);}
	.st56{fill:url(#SVGID_00000132080405123167600700000011997702030798613416_);}
	.st57{fill:url(#SVGID_00000049939061265508302540000010234831149998713517_);}
	.st58{fill:url(#SVGID_00000053524912506468443640000003192306079534868900_);}
</style>
<g>
	<linearGradient id="SVGID_1_" gradientUnits="userSpaceOnUse" x1="102.9616" y1="216.5221" x2="434.8185" y2="216.5221">
		<stop  offset="5.540901e-07" style="stop-color:#C590DD"/>
		<stop  offset="0.2854" style="stop-color:#B86DD3"/>
		<stop  offset="0.9148" style="stop-color:#9815B9"/>
		<stop  offset="1" style="stop-color:#9309B5"/>
	</linearGradient>
	<path class="st1" d="M267.38,296.11c-17.3-0.01-34.61,0.27-51.9-0.08c-19.79-0.4-25.54-10.07-17.24-28.18
		c12.82-27.98,50.21-45,86.06-38.42c22.55,4.14,41.9,14.15,53.84,34.9c11.47,19.94,5.14,31.44-17.4,31.74
		C302.95,296.3,285.16,296.12,267.38,296.11z M176.12,296.01c4.49-0.04,9.23-0.32,8.58-6.71c-1.78-17.34,6.52-30.5,17.45-42.53
		c4.4-4.85,3.43-7.82-1.85-11.33c-32.68-21.73-88.61,1.13-96.65,39.68c-2.72,13.07,2.56,20.11,16.32,20.82
		c9.09,0.47,18.23,0.09,27.35,0.09C156.93,296.04,166.53,296.09,176.12,296.01z M414.44,296.09c18.44-0.47,23.86-8.29,18.29-26.11
		c-10.98-35.13-63.67-54.29-94.91-34.76c-6.26,3.92-6.52,7.18-1.64,12.27c7.76,8.08,12.97,17.61,16.48,28.36
		c2.12,6.51-4.13,15.93,4.37,19.25c6.3,2.46,14.2,0.85,21.39,1c3.84,0.08,7.68,0.01,11.53,0.02
		C398.12,296.12,406.28,296.3,414.44,296.09z M269.3,136.56c-19.88,0.28-36.5,17.82-36.7,38.74c-0.2,21.28,15.93,39.36,35.48,39.76
		c20.41,0.42,37.09-17.25,37.17-39.37C305.32,154.32,288.76,136.28,269.3,136.56z M368.58,217.49
		c17.15,0.74,31.76-14.46,32.26-33.56c0.5-19.01-13.11-34.94-30.38-35.58c-16.71-0.62-31.82,14.32-32.42,32.05
		C337.36,200.02,351.13,216.74,368.58,217.49z M167.44,217.52c16.69,0.44,32.25-15.51,32.9-33.72c0.65-18.07-13.94-34.74-31-35.45
		c-17.11-0.71-32.13,14.86-32.43,33.63C136.61,200.93,150.47,217.07,167.44,217.52z"/>
	
		<linearGradient id="SVGID_00000138547060845627486310000016200951987295002498_" gradientUnits="userSpaceOnUse" x1="71.1507" y1="246.5027" x2="123.1064" y2="336.4927">
		<stop  offset="0" style="stop-color:#F18D1B"/>
		<stop  offset="0.4698" style="stop-color:#E5302C"/>
		<stop  offset="0.5842" style="stop-color:#D8292B"/>
		<stop  offset="0.8435" style="stop-color:#BE1D28"/>
		<stop  offset="1" style="stop-color:#B51827"/>
	</linearGradient>
	<circle style="fill:url(#SVGID_00000138547060845627486310000016200951987295002498_);" cx="97.13" cy="291.5" r="51.95"/>
	<g>
		<g>
			<path class="st7" d="M90.42,317.48c0-3.24,2.41-5.07,5.32-5.07c2.91,0,5.24,1.83,5.24,5.07c0,3.16-2.33,4.91-5.24,4.91
				C92.83,322.38,90.42,320.64,90.42,317.48z M93.75,305.76c-1.08-15.38-2.66-30.18-2.91-36.83c-0.17-4.49,2.49-5.57,5.07-5.57
				c2.41,0,4.82,1,4.74,5.49c-0.17,6.9-2,21.53-3.24,36.91c-0.08,0.75-1,1.08-1.83,1.08C94.74,306.83,93.91,306.5,93.75,305.76z"/>
		</g>
	</g>
</g>
</svg>
