<?xml version="1.0" encoding="utf-8"?>
<!-- Generator: Adobe Illustrator 28.0.0, SVG Export Plug-In . SVG Version: 6.00 Build 0)  -->
<svg width="1rem" height="1rem" version="1.1" id="Capa_1" xmlns="http://www.w3.org/2000/svg" xmlns:xlink="http://www.w3.org/1999/xlink" x="0px" y="0px"
	 viewBox="0 0 480 480" style="enable-background:new 0 0 480 480;" xml:space="preserve">
<style type="text/css">
	.st0{fill:#444444;}
	.st1{fill:url(#SVGID_1_);}
	.st2{fill:url(#SVGID_00000052789214864791969050000014361213513968795036_);}
	.st3{fill:url(#SVGID_00000045605726775881379690000009314322738619034538_);}
	.st4{fill:url(#SVGID_00000181087397101927933220000010693096369058131094_);}
	.st5{fill:url(#SVGID_00000127044851321696168010000002519748885655098000_);}
	.st6{fill:url(#SVGID_00000180339381536888317960000008109270524875926454_);}
	.st7{fill:#FFFFFF;}
	.st8{fill:#66CCCC;}
	.st9{fill:#0075BE;}
	.st10{fill:#005889;}
	.st11{fill:url(#SVGID_00000011006184400442342210000009746225282431830712_);}
	.st12{fill:url(#SVGID_00000049911298167882803050000015704848230764617891_);}
	.st13{fill:url(#SVGID_00000032647492954566832390000017964514151143826858_);}
	.st14{fill:url(#SVGID_00000183246982184138161840000016145635248874402231_);}
	.st15{fill:url(#SVGID_00000151541071948569929990000015245274911510803358_);}
	.st16{fill:url(#SVGID_00000012443437341892949120000008429225130161341588_);}
	.st17{fill:url(#SVGID_00000085932528171022058020000010099817840343277756_);}
	.st18{fill:url(#SVGID_00000028299956865731591430000018300811276331183493_);}
	.st19{fill:url(#SVGID_00000031927365396506821880000009703816683038421175_);}
	.st20{fill:url(#SVGID_00000122690328049309069030000014565352709390759078_);}
	.st21{fill:url(#SVGID_00000011000661007869897370000004681810076283237301_);}
	.st22{fill:url(#SVGID_00000063632288169527486250000000317244088333933963_);}
	.st23{fill:url(#SVGID_00000181063106698546314200000010405365775983815102_);}
	.st24{fill:url(#SVGID_00000119835819447824394660000010126758251168383164_);}
	.st25{fill:url(#SVGID_00000090273612773638239320000010570129790273698960_);}
	.st26{fill:url(#SVGID_00000135659006094881947570000011009611601028071092_);}
	.st27{fill:url(#SVGID_00000005989288704233124760000012184490053880691891_);}
	.st28{fill:url(#SVGID_00000040574117463749342330000005297966129174081189_);}
	.st29{fill:url(#SVGID_00000011002986032697092510000007709317558731479952_);}
	.st30{fill:url(#SVGID_00000085230749621707775220000000793729683519753606_);}
	.st31{fill:url(#SVGID_00000179626342184600639950000001337200762565981852_);}
	.st32{fill:url(#SVGID_00000140719199083807655940000001418310819568340630_);}
	.st33{fill:url(#SVGID_00000139983252880249766450000018444712373285072785_);}
	.st34{fill:url(#SVGID_00000080191748104288512370000009098032442969102490_);}
	.st35{fill:url(#SVGID_00000157998508657518989730000016725840092417135038_);}
	.st36{fill:url(#SVGID_00000047043022065565756370000018109275168689308595_);}
	.st37{fill:url(#SVGID_00000004511297670014684950000005517824692668629673_);}
	.st38{fill:url(#SVGID_00000036970957460947244340000009060218246318399163_);}
	.st39{fill:url(#SVGID_00000057107453855229799680000010204379241977570701_);}
	.st40{fill:url(#SVGID_00000143590767182964905680000007082310865432235446_);}
	.st41{fill:url(#SVGID_00000036938546767262048060000005985011927104497043_);}
	.st42{fill:url(#SVGID_00000026123830221148577000000000599174619065975470_);}
	.st43{fill:url(#SVGID_00000024704709843757549350000008674173159720982708_);}
	.st44{fill:url(#SVGID_00000092415613662573215110000000997737168725080224_);}
	.st45{fill:url(#SVGID_00000167368951042437676950000003819552781290750137_);}
	.st46{fill:url(#SVGID_00000097490746581992026760000001114486655658074521_);}
	.st47{fill:url(#SVGID_00000058579027046793938590000014136291526174656926_);}
	.st48{fill:url(#SVGID_00000060711041295326770620000017559103320812486029_);}
	.st49{fill:url(#SVGID_00000120528809016737030590000001359233899031178943_);}
	.st50{fill:url(#SVGID_00000139990021955070528790000003438235331699955354_);}
	.st51{fill:url(#SVGID_00000075133546621769988250000012358223931029303459_);}
	.st52{fill:url(#SVGID_00000054233142940779773880000001534306114140739753_);}
	.st53{fill:url(#SVGID_00000110441257045451734830000009989674147055638953_);}
	.st54{fill:url(#SVGID_00000053545393565450467230000009389465643279122084_);}
	.st55{fill:url(#SVGID_00000180336658532052976820000009587222524451210164_);}
	.st56{fill:url(#SVGID_00000116927741476927545320000011714558148661944249_);}
	.st57{fill:url(#SVGID_00000119832346222225953110000014560538465189141139_);}
	.st58{fill:url(#SVGID_00000124857253436902056120000006942148581189237931_);}
</style>
<g>
	<linearGradient id="SVGID_1_" gradientUnits="userSpaceOnUse" x1="74.0715" y1="240" x2="405.9285" y2="240">
		<stop  offset="5.540901e-07" style="stop-color:#C590DD"/>
		<stop  offset="0.2854" style="stop-color:#B86DD3"/>
		<stop  offset="0.9148" style="stop-color:#9815B9"/>
		<stop  offset="1" style="stop-color:#9309B5"/>
	</linearGradient>
	<path class="st1" d="M238.49,319.59c-17.3-0.01-34.61,0.27-51.9-0.08c-19.79-0.4-25.54-10.07-17.24-28.18
		c12.82-27.98,50.21-45,86.06-38.42c22.55,4.14,41.9,14.15,53.84,34.9c11.47,19.94,5.14,31.44-17.4,31.74
		C274.06,319.78,256.27,319.6,238.49,319.59z M147.23,319.49c4.49-0.04,9.23-0.32,8.58-6.71c-1.78-17.34,6.52-30.5,17.45-42.53
		c4.4-4.85,3.43-7.82-1.85-11.33c-32.68-21.73-88.61,1.13-96.65,39.68c-2.72,13.07,2.56,20.11,16.32,20.82
		c9.09,0.47,18.23,0.09,27.35,0.09C128.04,319.51,137.64,319.57,147.23,319.49z M385.55,319.57c18.44-0.47,23.86-8.29,18.29-26.11
		c-10.98-35.13-63.67-54.29-94.91-34.76c-6.26,3.92-6.52,7.18-1.64,12.27c7.76,8.08,12.97,17.61,16.48,28.36
		c2.12,6.51-4.13,15.93,4.37,19.25c6.3,2.46,14.2,0.85,21.39,1c3.84,0.08,7.68,0.01,11.53,0.02
		C369.23,319.6,377.39,319.77,385.55,319.57z M240.41,160.04c-19.88,0.28-36.5,17.82-36.7,38.74c-0.2,21.28,15.93,39.36,35.48,39.76
		c20.41,0.42,37.09-17.25,37.17-39.37C276.43,177.8,259.87,159.76,240.41,160.04z M339.69,240.97
		c17.15,0.74,31.76-14.46,32.26-33.56c0.5-19.01-13.11-34.94-30.38-35.58c-16.71-0.62-31.82,14.32-32.42,32.05
		C308.47,223.5,322.24,240.22,339.69,240.97z M138.55,241c16.69,0.44,32.25-15.51,32.9-33.72c0.65-18.07-13.94-34.74-31-35.45
		c-17.11-0.71-32.13,14.86-32.43,33.63C107.72,224.41,121.58,240.54,138.55,241z"/>
</g>
</svg>
