<?xml version="1.0" encoding="utf-8"?>
<!-- Generator: Adobe Illustrator 28.0.0, SVG Export Plug-In . SVG Version: 6.00 Build 0)  -->
<svg width="1rem" height="1rem" version="1.1" id="Capa_1" xmlns="http://www.w3.org/2000/svg" xmlns:xlink="http://www.w3.org/1999/xlink" x="0px" y="0px"
	 viewBox="0 0 480 480" style="enable-background:new 0 0 480 480;" xml:space="preserve">
<style type="text/css">
	.st0{fill:#444444;}
	.st1{fill:url(#SVGID_1_);}
	.st2{fill:url(#SVGID_00000170260678722656101160000006324779465314964872_);}
	.st3{fill:url(#SVGID_00000003788519074120008570000011523693610916648590_);}
	.st4{fill:url(#SVGID_00000164503847576726937360000015921529974074887567_);}
	.st5{fill:url(#SVGID_00000145022321902191330790000005489824097202553730_);}
	.st6{fill:url(#SVGID_00000155829249801073611950000014227765350472579733_);}
	.st7{fill:#FFFFFF;}
	.st8{fill:#66CCCC;}
	.st9{fill:#0075BE;}
	.st10{fill:#005889;}
	.st11{fill:url(#SVGID_00000070080760443231200030000009970465310838418604_);}
	.st12{fill:url(#SVGID_00000135667313790277605910000011739552057551698070_);}
	.st13{fill:url(#SVGID_00000152954214116366338430000014083973394946043321_);}
	.st14{fill:url(#SVGID_00000165936698755611016830000014139630683526332807_);}
	.st15{fill:url(#SVGID_00000039121682029938292460000010804416283560991378_);}
	.st16{fill:url(#SVGID_00000152237783795623663660000010706590474769870471_);}
	.st17{fill:url(#SVGID_00000094608724219317771310000010896453994551202978_);}
	.st18{fill:url(#SVGID_00000122711878606613310460000000820787333847008156_);}
	.st19{fill:url(#SVGID_00000148635089318682320360000015974304848788896161_);}
	.st20{fill:url(#SVGID_00000128469992893775857080000003092774646378543776_);}
	.st21{fill:url(#SVGID_00000024696675143399336660000008995213913994729111_);}
	.st22{fill:url(#SVGID_00000169526797964914815490000009253757103475073671_);}
	.st23{fill:url(#SVGID_00000037690659501465070970000007358401427020018823_);}
	.st24{fill:url(#SVGID_00000031191103287683259880000004359002980732343743_);}
	.st25{fill:url(#SVGID_00000080166551828326120520000004332818398588972466_);}
	.st26{fill:url(#SVGID_00000183932781857093076070000015392956737183522201_);}
	.st27{fill:url(#SVGID_00000152946167006350490120000012937742266487668632_);}
	.st28{fill:url(#SVGID_00000090274392796036820540000009755032024552605062_);}
	.st29{fill:url(#SVGID_00000133509163365870367720000012681171063321493931_);}
	.st30{fill:url(#SVGID_00000129898243454114986210000001452389225422465939_);}
	.st31{fill:url(#SVGID_00000060009908472371252990000008745787088782697107_);}
	.st32{fill:url(#SVGID_00000075161632602249060500000016422188545844114604_);}
	.st33{fill:url(#SVGID_00000003076533354982673900000004986100096448253081_);}
	.st34{fill:url(#SVGID_00000031187440061696735360000014955921350521081272_);}
	.st35{fill:url(#SVGID_00000181769922510981574150000004759037094866770866_);}
	.st36{fill:url(#SVGID_00000030447656069432688560000004608963698139788416_);}
	.st37{fill:url(#SVGID_00000030479787153298667520000003559261530900064144_);}
	.st38{fill:url(#SVGID_00000009559533638410754700000008473730315465031584_);}
	.st39{fill:url(#SVGID_00000031171215760635792340000011218068955889037465_);}
	.st40{fill:url(#SVGID_00000093164368944158400070000008942624259723030160_);}
	.st41{fill:url(#SVGID_00000011014514226477751550000000276547997568394631_);}
	.st42{fill:url(#SVGID_00000129912146264500021400000005029941167149222537_);}
	.st43{fill:url(#SVGID_00000080174664858650614570000012595101787466909067_);}
	.st44{fill:url(#SVGID_00000029008103473193235170000016192935027233910924_);}
	.st45{fill:url(#SVGID_00000012465736803570980610000012048681005070683266_);}
	.st46{fill:url(#SVGID_00000037651805245130625030000004701487524944010140_);}
	.st47{fill:url(#SVGID_00000170957292552019696890000005387464061339397812_);}
	.st48{fill:url(#SVGID_00000136374333072501485040000013102725447245477269_);}
	.st49{fill:url(#SVGID_00000003813582911681139930000014956244279396237749_);}
	.st50{fill:url(#SVGID_00000034796783577094287490000008962111247254953365_);}
	.st51{fill:url(#SVGID_00000023243980385082578570000018141037397576105354_);}
	.st52{fill:url(#SVGID_00000114794063764201396510000002996286437187298473_);}
	.st53{fill:url(#SVGID_00000066511360260924981380000004656280125144453009_);}
	.st54{fill:url(#SVGID_00000150100594731038941680000002599825037280392373_);}
	.st55{fill:url(#SVGID_00000044145430886345902440000018163277693212298636_);}
	.st56{fill:url(#SVGID_00000041258093200889716500000015163648741120243342_);}
	.st57{fill:url(#SVGID_00000153672929975645608130000005865782790525989004_);}
	.st58{fill:url(#SVGID_00000145041035855233982330000006618945002326431124_);}
</style>
<g>
	<linearGradient id="SVGID_1_" gradientUnits="userSpaceOnUse" x1="42.3431" y1="216.5221" x2="374.2" y2="216.5221">
		<stop  offset="5.540901e-07" style="stop-color:#C590DD"/>
		<stop  offset="0.2854" style="stop-color:#B86DD3"/>
		<stop  offset="0.9148" style="stop-color:#9815B9"/>
		<stop  offset="1" style="stop-color:#9309B5"/>
	</linearGradient>
	<path class="st1" d="M206.76,296.11c-17.3-0.01-34.61,0.27-51.9-0.08c-19.79-0.4-25.54-10.07-17.24-28.18
		c12.82-27.98,50.21-45,86.06-38.42c22.55,4.14,41.9,14.15,53.84,34.9c11.47,19.94,5.14,31.44-17.4,31.74
		C242.33,296.3,224.55,296.12,206.76,296.11z M115.51,296.01c4.49-0.04,9.23-0.32,8.58-6.71c-1.78-17.34,6.52-30.5,17.45-42.53
		c4.4-4.85,3.43-7.82-1.85-11.33c-32.68-21.73-88.61,1.13-96.65,39.68c-2.72,13.07,2.56,20.11,16.32,20.82
		c9.09,0.47,18.23,0.09,27.35,0.09C96.31,296.04,105.91,296.09,115.51,296.01z M353.83,296.09c18.44-0.47,23.86-8.29,18.29-26.11
		c-10.98-35.13-63.67-54.29-94.91-34.76c-6.26,3.92-6.52,7.18-1.64,12.27c7.76,8.08,12.97,17.61,16.48,28.36
		c2.12,6.51-4.13,15.93,4.37,19.25c6.3,2.46,14.2,0.85,21.39,1c3.84,0.08,7.68,0.01,11.53,0.02
		C337.5,296.12,345.67,296.3,353.83,296.09z M208.69,136.56c-19.88,0.28-36.5,17.82-36.7,38.74c-0.2,21.28,15.93,39.36,35.48,39.76
		c20.41,0.42,37.09-17.25,37.17-39.37C244.71,154.32,228.14,136.28,208.69,136.56z M307.96,217.49
		c17.15,0.74,31.76-14.46,32.26-33.56c0.5-19.01-13.11-34.94-30.38-35.58c-16.71-0.62-31.82,14.32-32.42,32.05
		C276.74,200.02,290.51,216.74,307.96,217.49z M106.82,217.52c16.69,0.44,32.25-15.51,32.9-33.72c0.65-18.07-13.94-34.74-31-35.45
		c-17.11-0.71-32.13,14.86-32.43,33.63C75.99,200.93,89.85,217.07,106.82,217.52z"/>
	
		<linearGradient id="SVGID_00000010274081745976585000000008812955448394982784_" gradientUnits="userSpaceOnUse" x1="359.732" y1="246.5027" x2="411.6877" y2="336.4927">
		<stop  offset="5.327789e-09" style="stop-color:#E6E905"/>
		<stop  offset="1" style="stop-color:#7AF603"/>
	</linearGradient>
	<circle style="fill:url(#SVGID_00000010274081745976585000000008812955448394982784_);" cx="385.71" cy="291.5" r="51.95"/>
	<g>
		<path class="st7" d="M352.97,280.99c0.22-1.04,0.54-2.04,1.26-2.87c1.31-1.5,3.38-2.12,5.34-1.44c1.97,0.67,3.1,2.08,3.38,4.16
			c0.19,1.41-0.25,2.64-1.1,3.8c3.74,3.12,7.47,6.22,11.27,9.39c3.46-6.93,6.9-13.79,10.35-20.7c-1.73-1.03-2.74-2.48-2.75-4.52
			c-0.01-1.42,0.51-2.63,1.52-3.6c2.11-2.02,5.45-1.8,7.32,0.42c1.61,1.91,1.85,5.61-1.62,7.71c3.43,6.86,6.86,13.72,10.34,20.69
			c3.78-3.15,7.52-6.26,11.09-9.24c-0.34-1.07-0.77-1.99-0.9-2.94c-0.26-1.92,0.54-3.47,2.11-4.56c1.55-1.07,3.26-1.2,4.97-0.39
			c1.54,0.73,2.47,1.98,2.77,3.67c0.03,0.14,0.08,0.28,0.12,0.42c0,0.3,0,0.6,0,0.9c-0.04,0.12-0.09,0.24-0.12,0.36
			c-0.38,1.97-1.52,3.32-3.43,3.9c-0.79,0.24-1.66,0.22-2.55,0.32c-0.05,0.23-0.12,0.51-0.18,0.8c-1.31,6.25-2.62,12.49-3.91,18.74
			c-0.1,0.47-0.28,0.56-0.71,0.56c-14.56-0.01-29.11-0.01-43.67,0c-0.44,0-0.62-0.1-0.71-0.56c-1.12-5.44-2.26-10.87-3.4-16.31
			c-0.23-1.12-0.47-2.23-0.7-3.33c-0.27,0-0.46-0.01-0.65,0c-1.85,0.13-3.38-0.53-4.41-2.04c-0.49-0.71-0.69-1.62-1.02-2.44
			C352.97,281.59,352.97,281.29,352.97,280.99z"/>
		<path class="st7" d="M363.12,311.68c15.08,0,30.1,0,45.23,0c0,0.43,0,0.85,0,1.26c0,0.89,0.02,1.79-0.02,2.68
			c-0.08,1.82-1.51,3.3-3.31,3.48c-0.32,0.03-0.64,0.06-0.96,0.06c-12.23,0-24.46,0-36.69,0.01c-1.39,0-2.65-0.3-3.49-1.49
			c-0.35-0.51-0.69-1.13-0.73-1.73C363.04,314.56,363.12,313.16,363.12,311.68z"/>
	</g>
</g>
</svg>
