<?xml version="1.0" encoding="utf-8"?>
<!-- Generator: Adobe Illustrator 28.0.0, SVG Export Plug-In . SVG Version: 6.00 Build 0)  -->
<svg width="1rem" height="1rem" version="1.1" id="Capa_1" xmlns="http://www.w3.org/2000/svg" xmlns:xlink="http://www.w3.org/1999/xlink" x="0px" y="0px"
	 viewBox="0 0 480 480" style="enable-background:new 0 0 480 480;" xml:space="preserve">
<style type="text/css">
	.st0{fill:#444444;}
	.st1{fill:url(#SVGID_1_);}
	.st2{fill:url(#SVGID_00000140708341569020900850000010455687603351542677_);}
	.st3{fill:url(#SVGID_00000072975198891097748170000005594075707044608191_);}
	.st4{fill:url(#SVGID_00000079480528317030690550000013018693622624013499_);}
	.st5{fill:url(#SVGID_00000121238900508274150600000005161256678050473909_);}
	.st6{fill:url(#SVGID_00000044143773699734249960000013120252504107177147_);}
	.st7{fill:#FFFFFF;}
	.st8{fill:#66CCCC;}
	.st9{fill:#0075BE;}
	.st10{fill:#005889;}
	.st11{fill:url(#SVGID_00000183244406941615892740000005077254789653538458_);}
	.st12{fill:url(#SVGID_00000021804538882828403720000003067857493229382829_);}
	.st13{fill:url(#SVGID_00000022551322466472031180000000814017517129455533_);}
	.st14{fill:url(#SVGID_00000150787612927785309850000016226428005299082644_);}
	.st15{fill:url(#SVGID_00000031921731305501345660000003040533014804398250_);}
	.st16{fill:url(#SVGID_00000153696912938938238310000013941282167369030844_);}
	.st17{fill:url(#SVGID_00000038414683807211960230000004255218877969751970_);}
	.st18{fill:url(#SVGID_00000114777944680259049350000010475884089591769497_);}
	.st19{fill:url(#SVGID_00000031922915380815517530000015902081029280791706_);}
	.st20{fill:url(#SVGID_00000057869725376527819010000003399610740517752726_);}
	.st21{fill:url(#SVGID_00000057142551772095376430000010682612088971897221_);}
	.st22{fill:url(#SVGID_00000169537035907636033190000011360286340968152464_);}
	.st23{fill:url(#SVGID_00000122721559540237151630000016745753912563059599_);}
	.st24{fill:url(#SVGID_00000070840958155178857200000014637468385806526891_);}
	.st25{fill:url(#SVGID_00000122710360728007057170000004552259898138103220_);}
	.st26{fill:url(#SVGID_00000164484125325144106830000002207576697512362117_);}
	.st27{fill:url(#SVGID_00000032636113076509862820000010514049400931006345_);}
	.st28{fill:url(#SVGID_00000052800732619133032510000015950351945948601478_);}
	.st29{fill:url(#SVGID_00000070813236225439636460000011293910888147209876_);}
	.st30{fill:url(#SVGID_00000094600711435693260300000006733747190497214141_);}
	.st31{fill:url(#SVGID_00000018212966204718774880000016580674048094136965_);}
	.st32{fill:url(#SVGID_00000085962596086469373940000004915593227064779673_);}
	.st33{fill:url(#SVGID_00000096768553310161393940000005640838069402082224_);}
	.st34{fill:url(#SVGID_00000080911455839463930760000006470359929163365283_);}
	.st35{fill:url(#SVGID_00000067200167666006157780000015479788142364575896_);}
	.st36{fill:url(#SVGID_00000033362126653515614210000012067031955762059682_);}
	.st37{fill:url(#SVGID_00000177469828523683340800000001075418149399518394_);}
	.st38{fill:url(#SVGID_00000133517941157402662810000001960741812878961329_);}
	.st39{fill:url(#SVGID_00000158735478742429833600000001667332603374976437_);}
	.st40{fill:url(#SVGID_00000016790663361214869650000017975622371172917889_);}
	.st41{fill:url(#SVGID_00000024691154420329497120000010960706517373640613_);}
	.st42{fill:url(#SVGID_00000072984839143497573080000010998825836937386408_);}
	.st43{fill:url(#SVGID_00000023248680286087975450000007192772050593912198_);}
	.st44{fill:url(#SVGID_00000049912985525571142730000004170664956120444803_);}
	.st45{fill:url(#SVGID_00000036247851401818933900000005967982274719819440_);}
	.st46{fill:url(#SVGID_00000144301228861797734910000009786880621159702456_);}
	.st47{fill:url(#SVGID_00000009571854515184033680000008707549593439935156_);}
	.st48{fill:url(#SVGID_00000004536304112869320240000002714473452735201946_);}
	.st49{fill:url(#SVGID_00000170974318395633256000000011181344330035655327_);}
	.st50{fill:url(#SVGID_00000125570800306923759880000003663605723263772072_);}
	.st51{fill:url(#SVGID_00000090268449940217113700000016272924457271722161_);}
	.st52{fill:url(#SVGID_00000025400759446013704630000009244301504949628571_);}
	.st53{fill:url(#SVGID_00000091731884614426254410000016063845084082332071_);}
	.st54{fill:url(#SVGID_00000047778667319709141560000011113672350507349634_);}
	.st55{fill:url(#SVGID_00000018947017962106827300000007699188257522893708_);}
	.st56{fill:url(#SVGID_00000163073877352272274640000005778087908621943230_);}
	.st57{fill:url(#SVGID_00000172427595726845346250000004925698815874554518_);}
	.st58{fill:url(#SVGID_00000008830855231515903300000005546821645280044444_);}
</style>
<g>
	<linearGradient id="SVGID_1_" gradientUnits="userSpaceOnUse" x1="71.2331" y1="216.5221" x2="403.0901" y2="216.5221">
		<stop  offset="5.540901e-07" style="stop-color:#C590DD"/>
		<stop  offset="0.2854" style="stop-color:#B86DD3"/>
		<stop  offset="0.9148" style="stop-color:#9815B9"/>
		<stop  offset="1" style="stop-color:#9309B5"/>
	</linearGradient>
	<path class="st1" d="M235.65,296.11c-17.3-0.01-34.61,0.27-51.9-0.08c-19.79-0.4-25.54-10.07-17.24-28.18
		c12.82-27.98,50.21-45,86.06-38.42c22.55,4.14,41.9,14.15,53.84,34.9c11.47,19.94,5.14,31.44-17.4,31.74
		C271.22,296.3,253.44,296.12,235.65,296.11z M144.4,296.01c4.49-0.04,9.23-0.32,8.58-6.71c-1.78-17.34,6.52-30.5,17.45-42.53
		c4.4-4.85,3.43-7.82-1.85-11.33c-32.68-21.73-88.61,1.13-96.65,39.68c-2.72,13.07,2.56,20.11,16.32,20.82
		c9.09,0.47,18.23,0.09,27.35,0.09C125.2,296.04,134.8,296.09,144.4,296.01z M382.72,296.09c18.44-0.47,23.86-8.29,18.29-26.11
		c-10.98-35.13-63.67-54.29-94.91-34.76c-6.26,3.92-6.52,7.18-1.64,12.27c7.76,8.08,12.97,17.61,16.48,28.36
		c2.12,6.51-4.13,15.93,4.37,19.25c6.3,2.46,14.2,0.85,21.39,1c3.84,0.08,7.68,0.01,11.53,0.02
		C366.39,296.12,374.56,296.3,382.72,296.09z M237.58,136.56c-19.88,0.28-36.5,17.82-36.7,38.74c-0.2,21.28,15.93,39.36,35.48,39.76
		c20.41,0.42,37.09-17.25,37.17-39.37C273.6,154.32,257.03,136.28,237.58,136.56z M336.85,217.49
		c17.15,0.74,31.76-14.46,32.26-33.56c0.5-19.01-13.11-34.94-30.38-35.58c-16.71-0.62-31.82,14.32-32.42,32.05
		C305.63,200.02,319.4,216.74,336.85,217.49z M135.71,217.52c16.69,0.44,32.25-15.51,32.9-33.72c0.65-18.07-13.94-34.74-31-35.45
		c-17.11-0.71-32.13,14.86-32.43,33.63C104.88,200.93,118.74,217.07,135.71,217.52z"/>
	
		<linearGradient id="SVGID_00000147197936172875697760000007400855769049704375_" gradientUnits="userSpaceOnUse" x1="39.4223" y1="246.5027" x2="91.378" y2="336.4927">
		<stop  offset="0" style="stop-color:#F18D1B"/>
		<stop  offset="0.4698" style="stop-color:#E5302C"/>
		<stop  offset="0.5842" style="stop-color:#D8292B"/>
		<stop  offset="0.8435" style="stop-color:#BE1D28"/>
		<stop  offset="1" style="stop-color:#B51827"/>
	</linearGradient>
	<circle style="fill:url(#SVGID_00000147197936172875697760000007400855769049704375_);" cx="65.4" cy="291.5" r="51.95"/>
	<g>
		<g>
			<path class="st7" d="M58.69,317.48c0-3.24,2.41-5.07,5.32-5.07c2.91,0,5.24,1.83,5.24,5.07c0,3.16-2.33,4.91-5.24,4.91
				C61.1,322.38,58.69,320.64,58.69,317.48z M62.02,305.76c-1.08-15.38-2.66-30.18-2.91-36.83c-0.17-4.49,2.49-5.57,5.07-5.57
				c2.41,0,4.82,1,4.74,5.49c-0.17,6.9-2,21.53-3.24,36.91c-0.08,0.75-1,1.08-1.83,1.08C63.02,306.83,62.18,306.5,62.02,305.76z"/>
		</g>
	</g>
	
		<linearGradient id="SVGID_00000125567072568915840280000009244770711213718403_" gradientUnits="userSpaceOnUse" x1="388.622" y1="246.5027" x2="440.5777" y2="336.4927">
		<stop  offset="5.327789e-09" style="stop-color:#E6E905"/>
		<stop  offset="1" style="stop-color:#7AF603"/>
	</linearGradient>
	<circle style="fill:url(#SVGID_00000125567072568915840280000009244770711213718403_);" cx="414.6" cy="291.5" r="51.95"/>
	<g>
		<path class="st7" d="M381.86,280.99c0.22-1.04,0.54-2.04,1.26-2.87c1.31-1.5,3.38-2.12,5.34-1.44c1.97,0.67,3.1,2.08,3.38,4.16
			c0.19,1.41-0.25,2.64-1.1,3.8c3.74,3.12,7.47,6.22,11.27,9.39c3.46-6.93,6.9-13.79,10.35-20.7c-1.73-1.03-2.74-2.48-2.75-4.52
			c-0.01-1.42,0.51-2.63,1.52-3.6c2.11-2.02,5.45-1.8,7.32,0.42c1.61,1.91,1.85,5.61-1.62,7.71c3.43,6.86,6.86,13.72,10.34,20.69
			c3.78-3.15,7.52-6.26,11.09-9.24c-0.34-1.07-0.77-1.99-0.9-2.94c-0.26-1.92,0.54-3.47,2.11-4.56c1.55-1.07,3.26-1.2,4.97-0.39
			c1.54,0.73,2.47,1.98,2.77,3.67c0.03,0.14,0.08,0.28,0.12,0.42c0,0.3,0,0.6,0,0.9c-0.04,0.12-0.09,0.24-0.12,0.36
			c-0.38,1.97-1.52,3.32-3.43,3.9c-0.79,0.24-1.66,0.22-2.55,0.32c-0.05,0.23-0.12,0.51-0.18,0.8c-1.31,6.25-2.62,12.49-3.91,18.74
			c-0.1,0.47-0.28,0.56-0.71,0.56c-14.56-0.01-29.11-0.01-43.67,0c-0.44,0-0.62-0.1-0.71-0.56c-1.12-5.44-2.26-10.87-3.4-16.31
			c-0.23-1.12-0.47-2.23-0.7-3.33c-0.27,0-0.46-0.01-0.65,0c-1.85,0.13-3.38-0.53-4.41-2.04c-0.49-0.71-0.69-1.62-1.02-2.44
			C381.86,281.59,381.86,281.29,381.86,280.99z"/>
		<path class="st7" d="M392.01,311.68c15.08,0,30.1,0,45.23,0c0,0.43,0,0.85,0,1.26c0,0.89,0.02,1.79-0.02,2.68
			c-0.08,1.82-1.51,3.3-3.31,3.48c-0.32,0.03-0.64,0.06-0.96,0.06c-12.23,0-24.46,0-36.69,0.01c-1.39,0-2.65-0.3-3.49-1.49
			c-0.35-0.51-0.69-1.13-0.73-1.73C391.93,314.56,392.01,313.16,392.01,311.68z"/>
	</g>
</g>
</svg>
