<?xml version="1.0" encoding="utf-8"?>
<!-- Generator: Adobe Illustrator 28.0.0, SVG Export Plug-In . SVG Version: 6.00 Build 0)  -->
<svg width="1rem" height="1rem" version="1.1" id="Capa_1" xmlns="http://www.w3.org/2000/svg" xmlns:xlink="http://www.w3.org/1999/xlink" x="0px" y="0px"
	 viewBox="0 0 480 480" style="enable-background:new 0 0 480 480;" xml:space="preserve">
<style type="text/css">
	.st0{fill:#444444;}
	.st1{fill:url(#SVGID_1_);}
	.st2{fill:url(#SVGID_00000053515552465440598030000018037045352536458132_);}
	.st3{fill:url(#SVGID_00000157275545368200579850000016781115538007689654_);}
	.st4{fill:url(#SVGID_00000066490261165861847000000004654454470424809626_);}
	.st5{fill:url(#SVGID_00000073686476008860869020000011073513844241079986_);}
	.st6{fill:url(#SVGID_00000129163694414779264840000012862487319519485325_);}
	.st7{fill:#FFFFFF;}
	.st8{fill:#66CCCC;}
	.st9{fill:#0075BE;}
	.st10{fill:#005889;}
	.st11{fill:url(#SVGID_00000179619788397409783220000008662595738700038321_);}
	.st12{fill:url(#SVGID_00000181800733003784669280000012732547780296278440_);}
	.st13{fill:url(#SVGID_00000172431563724101017910000003645921939503102391_);}
	.st14{fill:url(#SVGID_00000164516359830025954330000002730033344926840456_);}
	.st15{fill:url(#SVGID_00000047742546724012587790000018022909659609940656_);}
	.st16{fill:url(#SVGID_00000056407912945128868760000014293730855065827495_);}
	.st17{fill:url(#SVGID_00000100381117707732960990000003975976738271185079_);}
	.st18{fill:url(#SVGID_00000179642979179150503410000003131048897369110415_);}
	.st19{fill:url(#SVGID_00000067198226111459525590000011872609971953673602_);}
	.st20{fill:url(#SVGID_00000099634796088927804060000000456639256179900829_);}
	.st21{fill:url(#SVGID_00000137121617909533103400000003563322826676297858_);}
	.st22{fill:url(#SVGID_00000005957003932673965170000006524959402790588051_);}
	.st23{fill:url(#SVGID_00000103975930410128850140000000052109901926424449_);}
	.st24{fill:url(#SVGID_00000181781263515034515250000003348680774567033267_);}
	.st25{fill:url(#SVGID_00000038397913923144229130000012146533020763279507_);}
	.st26{fill:url(#SVGID_00000109731250779288588110000005076688226827970691_);}
	.st27{fill:url(#SVGID_00000000900892575602130110000016236074573147029913_);}
	.st28{fill:url(#SVGID_00000078724756716555067170000008508092744476952490_);}
	.st29{fill:url(#SVGID_00000056430004337486679270000013648100279572060309_);}
	.st30{fill:url(#SVGID_00000165221513949812857240000007605472127487185567_);}
	.st31{fill:url(#SVGID_00000183219967855438574280000004884353061350875545_);}
	.st32{fill:url(#SVGID_00000097497916659838868380000007676333943766259087_);}
	.st33{fill:url(#SVGID_00000120555080256533917990000018242850895805007258_);}
	.st34{fill:url(#SVGID_00000114056072948439039430000003169350106272142522_);}
	.st35{fill:url(#SVGID_00000065057645195660060720000005244554761381103243_);}
	.st36{fill:url(#SVGID_00000179615665177448161030000006137243280585158048_);}
	.st37{fill:url(#SVGID_00000024692602280494152970000015923906620223849109_);}
	.st38{fill:url(#SVGID_00000166635684538013250500000009057495916551032496_);}
	.st39{fill:url(#SVGID_00000031906523178195639630000004226487235072366002_);}
	.st40{fill:url(#SVGID_00000120519003967706054800000005608831115260296876_);}
	.st41{fill:url(#SVGID_00000093897712995621393770000008013986250529415575_);}
	.st42{fill:url(#SVGID_00000020391589493047830430000017668432217166281867_);}
	.st43{fill:url(#SVGID_00000103946902536879292290000013831857570781161089_);}
	.st44{fill:url(#SVGID_00000033360038839393230760000001966049973041090953_);}
	.st45{fill:url(#SVGID_00000026122853649618886090000017379254084319223721_);}
	.st46{fill:url(#SVGID_00000162318173065720532060000002691050526661025163_);}
	.st47{fill:url(#SVGID_00000088829620830003514160000016862158972198609304_);}
	.st48{fill:url(#SVGID_00000057146594706826715540000012962779381536364944_);}
	.st49{fill:url(#SVGID_00000072252109161672951130000015809577477745305234_);}
	.st50{fill:url(#SVGID_00000121268970227742044610000003453316542033455778_);}
	.st51{fill:url(#SVGID_00000036952257962240302940000001858752707061311409_);}
	.st52{fill:url(#SVGID_00000040562102668311405230000013321034245412364466_);}
	.st53{fill:url(#SVGID_00000152964614411533064650000009579571711190329519_);}
	.st54{fill:url(#SVGID_00000103953890281537577610000001230253986839868828_);}
	.st55{fill:url(#SVGID_00000008132950201654790720000017631422480445445000_);}
	.st56{fill:url(#SVGID_00000036939077551311231030000010778084317787019172_);}
	.st57{fill:url(#SVGID_00000149355173189666038120000004102576936373546626_);}
	.st58{fill:url(#SVGID_00000182528158653309734600000010830361039314960772_);}
</style>
<g>
	<linearGradient id="SVGID_1_" gradientUnits="userSpaceOnUse" x1="70.0671" y1="240" x2="406.1598" y2="240">
		<stop  offset="1.065558e-08" style="stop-color:#90D8D8"/>
		<stop  offset="0.1293" style="stop-color:#87D4D4"/>
		<stop  offset="0.3444" style="stop-color:#6DC9C9"/>
		<stop  offset="0.6187" style="stop-color:#44B8B7"/>
		<stop  offset="0.9384" style="stop-color:#0BA09E"/>
		<stop  offset="0.9944" style="stop-color:#009C99"/>
	</linearGradient>
	<path class="st1" d="M406.15,107.22c0.05-10.05-6.47-16.56-16.43-16.54c-101.31,0.14-202.62,0.08-303.93,0.09
		c-10.01,0-15.72,5.64-15.72,15.64c-0.02,62,0,124,0,185.99c0,1.66,0.07,3.3,0.62,4.92c2.13,6.26,7.17,9.78,14.53,9.78
		c35.51,0.03,71.02,0.02,106.53,0c2.25,0,4.49-0.18,6.74-0.27c0.07-1.31-0.02-2.49-0.45-3.38c-0.12-0.26-0.27-0.49-0.46-0.69
		c0.18,0.2,0.33,0.44,0.46,0.69c0.43,0.89,0.51,2.07,0.45,3.38c0.47,0.02,0.94,0.04,1.41,0.07c2.72,0.08,5.46,0.33,8.17,0.17
		c2.57-0.15,3.48,0.51,3.44,3.3c-0.17,11.87-0.15,23.75-0.01,35.63c0.03,2.65-0.61,3.34-3.36,3.33
		c-21.61-0.09-43.23,0.04-64.84,0.05c-4,0-7.12,1.73-9.61,4.62c-4.56,5.3-4.51,24.7-0.24,30.26c3.25,4.24,7.65,5.08,12.52,5.08
		c62.23-0.01,124.46,0,186.69-0.01c1.18,0,2.35-0.17,3.53-0.26c0.01-0.19-0.01-0.42-0.02-0.64c0.01,0.23,0.03,0.45,0.02,0.64
		c0.43-0.09,0.86-0.18,1.29-0.27v0c3.14,0.14,5.37-1.26,6.83-3.99c0,0,0.05-0.06,0.05-0.07c2.83-1.5,3.39-4.32,3.86-7.05
		c0.78-4.59,0.39-9.25,0.33-13.87c-0.12-9.27-5.46-14.43-14.72-14.44c-22.8-0.02-45.61-0.04-68.41,0.04
		c-2.72,0.01-3.64-0.68-3.59-3.58c0.19-11.52,0.23-23.04-0.01-34.56c-0.07-3.47,0.85-4.26,4.26-4.25
		c41.33,0.13,82.66-0.04,123.99,0.2c8.66,0.05,16.13-5.89,16.08-16.14C405.86,229.79,405.88,168.5,406.15,107.22z M199.22,300.98
		c-0.31,0.06-0.64,0.05-0.96,0.01C198.59,301.04,198.91,301.04,199.22,300.98L199.22,300.98z M206.27,296.07
		c-0.31-0.17-0.63-0.34-0.94-0.51C205.65,295.74,205.96,295.91,206.27,296.07c0,0,0.03-0.04,0.06-0.07
		C206.31,296.04,206.27,296.07,206.27,296.07c0.52,0.36,1.03,0.54,1.54,0.53C207.3,296.62,206.79,296.44,206.27,296.07z
		 M209.18,295.95c-0.35,0-0.7,0-1.05-0.01C208.47,295.95,208.82,295.95,209.18,295.95c0.12-0.12,0.24-0.24,0.36-0.36
		C209.42,295.71,209.3,295.83,209.18,295.95z M214.8,289.96c-0.16-0.02-0.32-0.03-0.48-0.04
		C214.48,289.93,214.64,289.94,214.8,289.96C214.8,289.96,214.8,289.96,214.8,289.96z M215.57,280.26
		c-0.51,0.83-0.68,1.65-0.49,2.32C214.89,281.91,215.06,281.09,215.57,280.26c0.16-0.31,0.31-0.61,0.47-0.92
		C215.89,279.65,215.73,279.96,215.57,280.26z M216.6,281.95c0.17,0.08,0.37,0.13,0.59,0.12
		C216.97,282.08,216.78,282.04,216.6,281.95z M219.15,277.74c0.23,0.03,0.48,0.09,0.74,0.19
		C219.63,277.83,219.38,277.77,219.15,277.74z M222.71,273.14c-1.02,0.9-1.52,1.72-1.54,2.48
		C221.19,274.86,221.7,274.03,222.71,273.14c0.13-0.12,0.25-0.25,0.38-0.37C222.97,272.89,222.84,273.01,222.71,273.14z
		 M226.12,274.44L226.12,274.44c0.05-0.64,0.11-1.29,0.17-1.93c-0.93,0-1.86,0-2.79,0.01c0.93,0,1.86,0,2.79-0.01
		C226.23,273.15,226.17,273.8,226.12,274.44z M387.51,253.55c0.01,3.22-0.78,4.18-4.07,4.17c-96.8-0.09-193.6-0.09-290.39,0
		c-3.55,0-4.49-0.86-4.47-4.5c0.14-46.32,0.09-92.64,0.09-138.96c0-4.89,0-4.89,5.07-4.89c48.1,0,96.2,0,144.31,0
		c48.34,0.01,96.68,0.05,145.02-0.08c3.71-0.01,4.46,1.03,4.45,4.57C387.39,160.44,387.4,206.99,387.51,253.55z"/>
	
		<linearGradient id="SVGID_00000014623302241691722280000002294291837092043958_" gradientUnits="userSpaceOnUse" x1="43.5178" y1="279.7038" x2="100.5692" y2="378.5197">
		<stop  offset="0" style="stop-color:#F18D1B"/>
		<stop  offset="0.4698" style="stop-color:#E5302C"/>
		<stop  offset="0.5842" style="stop-color:#D8292B"/>
		<stop  offset="0.8435" style="stop-color:#BE1D28"/>
		<stop  offset="1" style="stop-color:#B51827"/>
	</linearGradient>
	<circle style="fill:url(#SVGID_00000014623302241691722280000002294291837092043958_);" cx="72.04" cy="329.11" r="57.04"/>
	<g>
		<g>
			<path class="st7" d="M64.68,357.64c0-3.56,2.65-5.57,5.84-5.57c3.19,0,5.75,2.01,5.75,5.57c0,3.47-2.56,5.39-5.75,5.39
				C67.32,363.03,64.68,361.11,64.68,357.64z M68.33,344.77c-1.19-16.89-2.92-33.14-3.2-40.44c-0.18-4.93,2.74-6.12,5.57-6.12
				c2.65,0,5.3,1.1,5.21,6.03c-0.18,7.58-2.19,23.65-3.56,40.53c-0.09,0.82-1.1,1.19-2.01,1.19
				C69.43,345.95,68.51,345.59,68.33,344.77z"/>
		</g>
	</g>
	
		<linearGradient id="SVGID_00000116195173165613806900000007981278694335440529_" gradientUnits="userSpaceOnUse" x1="379.4308" y1="279.7038" x2="436.4821" y2="378.5197">
		<stop  offset="5.327789e-09" style="stop-color:#E6E905"/>
		<stop  offset="1" style="stop-color:#7AF603"/>
	</linearGradient>
	<circle style="fill:url(#SVGID_00000116195173165613806900000007981278694335440529_);" cx="407.96" cy="329.11" r="57.04"/>
	<g>
		<path class="st7" d="M372.01,317.58c0.24-1.15,0.59-2.24,1.39-3.15c1.43-1.65,3.71-2.33,5.87-1.59c2.16,0.74,3.4,2.29,3.71,4.57
			c0.21,1.54-0.27,2.9-1.21,4.18c4.11,3.43,8.2,6.84,12.37,10.31c3.8-7.61,7.57-15.14,11.37-22.73c-1.89-1.13-3.01-2.73-3.02-4.96
			c-0.01-1.56,0.56-2.89,1.67-3.96c2.32-2.22,5.98-1.98,8.04,0.46c1.77,2.09,2.03,6.16-1.77,8.47c3.76,7.53,7.53,15.07,11.35,22.72
			c4.16-3.46,8.25-6.88,12.18-10.14c-0.37-1.17-0.84-2.18-0.99-3.23c-0.28-2.1,0.59-3.81,2.31-5c1.7-1.18,3.58-1.32,5.46-0.42
			c1.7,0.8,2.71,2.17,3.04,4.03c0.03,0.16,0.08,0.31,0.13,0.46c0,0.33,0,0.66,0,0.98c-0.04,0.13-0.1,0.26-0.13,0.39
			c-0.42,2.17-1.67,3.65-3.77,4.29c-0.87,0.26-1.83,0.24-2.8,0.35c-0.06,0.25-0.13,0.56-0.2,0.88c-1.44,6.86-2.88,13.72-4.3,20.58
			c-0.11,0.51-0.3,0.62-0.78,0.62c-15.98-0.01-31.97-0.01-47.95,0c-0.48,0-0.68-0.11-0.78-0.62c-1.23-5.97-2.49-11.94-3.74-17.91
			c-0.26-1.23-0.52-2.45-0.77-3.66c-0.3,0-0.51-0.01-0.72,0c-2.03,0.14-3.71-0.59-4.85-2.25c-0.54-0.78-0.75-1.78-1.12-2.68
			C372.01,318.23,372.01,317.91,372.01,317.58z"/>
		<path class="st7" d="M383.15,351.28c16.56,0,33.05,0,49.66,0c0,0.47,0,0.93,0,1.39c0,0.98,0.02,1.97-0.02,2.95
			c-0.09,2-1.66,3.62-3.64,3.82c-0.35,0.03-0.7,0.07-1.05,0.07c-13.43,0-26.86,0-40.29,0.01c-1.52,0-2.91-0.33-3.83-1.64
			c-0.39-0.56-0.76-1.25-0.81-1.9C383.07,354.44,383.15,352.89,383.15,351.28z"/>
	</g>
</g>
</svg>
