<?xml version="1.0" encoding="utf-8"?>
<!-- Generator: Adobe Illustrator 28.0.0, SVG Export Plug-In . SVG Version: 6.00 Build 0)  -->
<svg width="1rem" height="1rem" version="1.1" id="Capa_1" xmlns="http://www.w3.org/2000/svg" xmlns:xlink="http://www.w3.org/1999/xlink" x="0px" y="0px"
	 viewBox="0 0 480 480" style="enable-background:new 0 0 480 480;" xml:space="preserve">
<style type="text/css">
	.st0{fill:#444444;}
	.st1{fill:url(#SVGID_1_);}
	.st2{fill:url(#SVGID_00000030454727624311397560000008047128135509785481_);}
	.st3{fill:url(#SVGID_00000025437416141837655040000004826597533565092225_);}
	.st4{fill:url(#SVGID_00000107581393492793874520000015393679813265357441_);}
	.st5{fill:url(#SVGID_00000003801795192632003870000006377143787537131689_);}
	.st6{fill:url(#SVGID_00000150091073243268106820000016944694075694125746_);}
	.st7{fill:#FFFFFF;}
	.st8{fill:#66CCCC;}
	.st9{fill:#0075BE;}
	.st10{fill:#005889;}
	.st11{fill:url(#SVGID_00000177480336313670178720000010988261931341107895_);}
	.st12{fill:url(#SVGID_00000079473968280344093750000001311161326547305871_);}
	.st13{fill:url(#SVGID_00000092425658566577375900000013919516230988125844_);}
	.st14{fill:url(#SVGID_00000124854789568265392570000006618785713216096698_);}
	.st15{fill:url(#SVGID_00000138537080905916574840000011151061455055431565_);}
	.st16{fill:url(#SVGID_00000064313415589421363120000016657567489415530649_);}
	.st17{fill:url(#SVGID_00000143610956858287889530000009558632813439736988_);}
	.st18{fill:url(#SVGID_00000124878636607267359470000018421202205017533627_);}
	.st19{fill:url(#SVGID_00000001664140170638684720000013977266512323707323_);}
	.st20{fill:url(#SVGID_00000018216291085834709770000006117449332233114018_);}
	.st21{fill:url(#SVGID_00000075151738748795842600000009578893114658387606_);}
	.st22{fill:url(#SVGID_00000093899450046306159890000013469113731013387191_);}
	.st23{fill:url(#SVGID_00000092427252292690113330000003815652294963122062_);}
	.st24{fill:url(#SVGID_00000136372391880137740800000001053306808315429037_);}
	.st25{fill:url(#SVGID_00000086661925528425132000000016456679937608256644_);}
	.st26{fill:url(#SVGID_00000149375557987228520500000003572663017487273631_);}
	.st27{fill:url(#SVGID_00000163033412238030991460000011045478199077947059_);}
	.st28{fill:url(#SVGID_00000163044248173022552670000001811618336468977591_);}
	.st29{fill:url(#SVGID_00000163048727191653914150000004769458628136071605_);}
	.st30{fill:url(#SVGID_00000177459914873951548670000006660804527911996288_);}
	.st31{fill:url(#SVGID_00000066516051356364268530000008595991716804599995_);}
	.st32{fill:url(#SVGID_00000147207397170854899410000003324437386924990646_);}
	.st33{fill:url(#SVGID_00000145057716126016787280000004493810353274293694_);}
	.st34{fill:url(#SVGID_00000087412597021914936120000010091868276055273146_);}
	.st35{fill:url(#SVGID_00000158708445297586405570000017196805100402456230_);}
	.st36{fill:url(#SVGID_00000171716709487277880200000000568625455031053982_);}
	.st37{fill:url(#SVGID_00000093878760341544048050000003116987817002827959_);}
	.st38{fill:url(#SVGID_00000161606819829515888010000017425914271972667527_);}
	.st39{fill:url(#SVGID_00000129188130070649764450000001669536708964021162_);}
	.st40{fill:url(#SVGID_00000037672905803365523030000012176483312697795725_);}
	.st41{fill:url(#SVGID_00000060018661327946499150000012293615976353108386_);}
	.st42{fill:url(#SVGID_00000089575039036267458260000012834088011699151234_);}
	.st43{fill:url(#SVGID_00000065033327452457411300000005939483282349515668_);}
	.st44{fill:url(#SVGID_00000068653550698723417410000015091615957792124054_);}
	.st45{fill:url(#SVGID_00000166661733548482247060000002905246908995356558_);}
	.st46{fill:url(#SVGID_00000116951263782030999320000008846341469051444144_);}
	.st47{fill:url(#SVGID_00000031895662443132501560000015513585187213297845_);}
	.st48{fill:url(#SVGID_00000074429124821076548410000012580087908574769838_);}
	.st49{fill:url(#SVGID_00000093139937022964847730000009500286723765115070_);}
	.st50{fill:url(#SVGID_00000121994030397535863850000010472613529305478075_);}
	.st51{fill:url(#SVGID_00000051362676567067107390000016486534527239210678_);}
	.st52{fill:url(#SVGID_00000116204795278683755890000008624324040007021239_);}
	.st53{fill:url(#SVGID_00000034805383541869175070000017013044350597542051_);}
	.st54{fill:url(#SVGID_00000074432497270170053170000015505822101911358357_);}
	.st55{fill:url(#SVGID_00000002347564413520075440000013212698609865463950_);}
	.st56{fill:url(#SVGID_00000183961584742140754790000001873907028399504276_);}
	.st57{fill:url(#SVGID_00000126323421788957190350000002393849157472771253_);}
	.st58{fill:url(#SVGID_00000133507532668500403160000006433246266669644221_);}
</style>
<g>
	<linearGradient id="SVGID_1_" gradientUnits="userSpaceOnUse" x1="42.5344" y1="240" x2="378.6271" y2="240">
		<stop  offset="1.065558e-08" style="stop-color:#90D8D8"/>
		<stop  offset="0.1293" style="stop-color:#87D4D4"/>
		<stop  offset="0.3444" style="stop-color:#6DC9C9"/>
		<stop  offset="0.6187" style="stop-color:#44B8B7"/>
		<stop  offset="0.9384" style="stop-color:#0BA09E"/>
		<stop  offset="0.9944" style="stop-color:#009C99"/>
	</linearGradient>
	<path class="st1" d="M378.62,107.22c0.05-10.05-6.47-16.56-16.43-16.54c-101.31,0.14-202.62,0.08-303.93,0.09
		c-10.01,0-15.72,5.64-15.72,15.64c-0.02,62,0,124,0,185.99c0,1.66,0.07,3.3,0.62,4.92c2.13,6.26,7.17,9.78,14.53,9.78
		c35.51,0.03,71.02,0.02,106.53,0c2.25,0,4.49-0.18,6.74-0.27c0.07-1.31-0.02-2.49-0.45-3.38c-0.12-0.26-0.27-0.49-0.46-0.69
		c0.18,0.2,0.33,0.44,0.46,0.69c0.43,0.89,0.51,2.07,0.45,3.38c0.47,0.02,0.94,0.04,1.41,0.07c2.72,0.08,5.46,0.33,8.17,0.17
		c2.57-0.15,3.48,0.51,3.44,3.3c-0.17,11.87-0.15,23.75-0.01,35.63c0.03,2.65-0.61,3.34-3.36,3.33
		c-21.61-0.09-43.23,0.04-64.84,0.05c-4,0-7.12,1.73-9.61,4.62c-4.56,5.3-4.51,24.7-0.24,30.26c3.25,4.24,7.65,5.08,12.52,5.08
		c62.23-0.01,124.46,0,186.69-0.01c1.18,0,2.35-0.17,3.53-0.26c0.01-0.19-0.01-0.42-0.02-0.64c0.01,0.23,0.03,0.45,0.02,0.64
		c0.43-0.09,0.86-0.18,1.29-0.27v0c3.14,0.14,5.37-1.26,6.83-3.99c0,0,0.05-0.06,0.05-0.07c2.83-1.5,3.39-4.32,3.86-7.05
		c0.78-4.59,0.39-9.25,0.33-13.87c-0.12-9.27-5.46-14.43-14.72-14.44c-22.8-0.02-45.61-0.04-68.41,0.04
		c-2.72,0.01-3.64-0.68-3.59-3.58c0.19-11.52,0.23-23.04-0.01-34.56c-0.07-3.47,0.85-4.26,4.26-4.25
		c41.33,0.13,82.66-0.04,123.99,0.2c8.66,0.05,16.13-5.89,16.08-16.14C378.33,229.79,378.35,168.5,378.62,107.22z M171.69,300.98
		c-0.31,0.06-0.64,0.05-0.96,0.01C171.06,301.04,171.38,301.04,171.69,300.98L171.69,300.98z M178.74,296.07
		c-0.31-0.17-0.63-0.34-0.94-0.51C178.12,295.74,178.43,295.91,178.74,296.07c0,0,0.03-0.04,0.06-0.07
		C178.77,296.04,178.74,296.07,178.74,296.07c0.52,0.36,1.03,0.54,1.54,0.53C179.77,296.62,179.26,296.44,178.74,296.07z
		 M181.64,295.95c-0.35,0-0.7,0-1.05-0.01C180.94,295.95,181.29,295.95,181.64,295.95c0.12-0.12,0.24-0.24,0.36-0.36
		C181.88,295.71,181.76,295.83,181.64,295.95z M187.27,289.96c-0.16-0.02-0.32-0.03-0.48-0.04
		C186.95,289.93,187.11,289.94,187.27,289.96C187.27,289.96,187.27,289.96,187.27,289.96z M188.04,280.26
		c-0.51,0.83-0.68,1.65-0.49,2.32C187.35,281.91,187.53,281.09,188.04,280.26c0.16-0.31,0.31-0.61,0.47-0.92
		C188.35,279.65,188.2,279.96,188.04,280.26z M189.07,281.95c0.17,0.08,0.37,0.13,0.59,0.12
		C189.44,282.08,189.24,282.04,189.07,281.95z M191.62,277.74c0.23,0.03,0.48,0.09,0.74,0.19
		C192.1,277.83,191.85,277.77,191.62,277.74z M195.18,273.14c-1.02,0.9-1.52,1.72-1.54,2.48
		C193.66,274.86,194.16,274.03,195.18,273.14c0.13-0.12,0.25-0.25,0.38-0.37C195.43,272.89,195.31,273.01,195.18,273.14z
		 M198.58,274.44L198.58,274.44c0.05-0.64,0.11-1.29,0.17-1.93c-0.93,0-1.86,0-2.79,0.01c0.93,0,1.86,0,2.79-0.01
		C198.69,273.15,198.64,273.8,198.58,274.44z M359.98,253.55c0.01,3.22-0.78,4.18-4.07,4.17c-96.8-0.09-193.6-0.09-290.39,0
		c-3.55,0-4.49-0.86-4.47-4.5c0.14-46.32,0.09-92.64,0.09-138.96c0-4.89,0-4.89,5.07-4.89c48.1,0,96.2,0,144.31,0
		c48.34,0.01,96.68,0.05,145.02-0.08c3.71-0.01,4.46,1.03,4.45,4.57C359.86,160.44,359.87,206.99,359.98,253.55z"/>
	
		<linearGradient id="SVGID_00000077283985745890994350000012980135392712759684_" gradientUnits="userSpaceOnUse" x1="351.8981" y1="279.7038" x2="408.9495" y2="378.5197">
		<stop  offset="5.327789e-09" style="stop-color:#E6E905"/>
		<stop  offset="1" style="stop-color:#7AF603"/>
	</linearGradient>
	<circle style="fill:url(#SVGID_00000077283985745890994350000012980135392712759684_);" cx="380.42" cy="329.11" r="57.04"/>
	<g>
		<path class="st7" d="M344.48,317.58c0.24-1.15,0.59-2.24,1.39-3.15c1.43-1.65,3.71-2.33,5.87-1.59c2.16,0.74,3.4,2.29,3.71,4.57
			c0.21,1.54-0.27,2.9-1.21,4.18c4.11,3.43,8.2,6.84,12.37,10.31c3.8-7.61,7.57-15.14,11.37-22.73c-1.89-1.13-3.01-2.73-3.02-4.96
			c-0.01-1.56,0.56-2.89,1.67-3.96c2.32-2.22,5.98-1.98,8.04,0.46c1.77,2.09,2.03,6.16-1.77,8.47c3.76,7.53,7.53,15.07,11.35,22.72
			c4.16-3.46,8.25-6.88,12.18-10.14c-0.37-1.17-0.84-2.18-0.99-3.23c-0.28-2.1,0.59-3.81,2.31-5c1.7-1.18,3.58-1.32,5.46-0.42
			c1.7,0.8,2.71,2.17,3.04,4.03c0.03,0.16,0.08,0.31,0.13,0.46c0,0.33,0,0.66,0,0.98c-0.04,0.13-0.1,0.26-0.13,0.39
			c-0.42,2.17-1.67,3.65-3.77,4.29c-0.87,0.26-1.83,0.24-2.8,0.35c-0.06,0.25-0.13,0.56-0.2,0.88c-1.44,6.86-2.88,13.72-4.3,20.58
			c-0.11,0.51-0.3,0.62-0.78,0.62c-15.98-0.01-31.97-0.01-47.95,0c-0.48,0-0.68-0.11-0.78-0.62c-1.23-5.97-2.49-11.94-3.74-17.91
			c-0.26-1.23-0.52-2.45-0.77-3.66c-0.3,0-0.51-0.01-0.72,0c-2.03,0.14-3.71-0.59-4.85-2.25c-0.54-0.78-0.75-1.78-1.12-2.68
			C344.48,318.23,344.48,317.91,344.48,317.58z"/>
		<path class="st7" d="M355.61,351.28c16.56,0,33.05,0,49.66,0c0,0.47,0,0.93,0,1.39c0,0.98,0.02,1.97-0.02,2.95
			c-0.09,2-1.66,3.62-3.64,3.82c-0.35,0.03-0.7,0.07-1.05,0.07c-13.43,0-26.86,0-40.29,0.01c-1.52,0-2.91-0.33-3.83-1.64
			c-0.39-0.56-0.76-1.25-0.81-1.9C355.53,354.44,355.61,352.89,355.61,351.28z"/>
	</g>
</g>
</svg>
