<?xml version="1.0" encoding="utf-8"?>
<!-- Generator: Adobe Illustrator 28.0.0, SVG Export Plug-In . SVG Version: 6.00 Build 0)  -->
<svg width="1rem" height="1rem" version="1.1" id="Capa_1" xmlns="http://www.w3.org/2000/svg" xmlns:xlink="http://www.w3.org/1999/xlink" x="0px" y="0px"
	 viewBox="0 0 480 480" style="enable-background:new 0 0 480 480;" xml:space="preserve">
<style type="text/css">
	.st0{fill:#444444;}
	.st1{fill:url(#SVGID_1_);}
	.st2{fill:url(#SVGID_00000147923198626305333300000015645761600399785873_);}
	.st3{fill:url(#SVGID_00000062163548632883068930000005879125154925234056_);}
	.st4{fill:url(#SVGID_00000012464772707138473930000007484878571971165070_);}
	.st5{fill:url(#SVGID_00000124129298225090439000000015605059991108529329_);}
	.st6{fill:url(#SVGID_00000160880629910247618970000013469971133027981711_);}
	.st7{fill:#FFFFFF;}
	.st8{fill:#66CCCC;}
	.st9{fill:#0075BE;}
	.st10{fill:#005889;}
	.st11{fill:url(#SVGID_00000076570862127097995900000002391968554460672648_);}
	.st12{fill:url(#SVGID_00000087402342982464633730000012407875596356314523_);}
	.st13{fill:url(#SVGID_00000072265555569929359670000013970879519482350996_);}
	.st14{fill:url(#SVGID_00000101792429636309391860000016320572535331236759_);}
	.st15{fill:url(#SVGID_00000080886351119456553770000001066248992263394193_);}
	.st16{fill:url(#SVGID_00000003815291517156986470000018208775494547453087_);}
	.st17{fill:url(#SVGID_00000044890085635910746950000017876417170465245117_);}
	.st18{fill:url(#SVGID_00000037654847201034327330000006382245034186967740_);}
	.st19{fill:url(#SVGID_00000047745079895744839740000014238690866628424338_);}
	.st20{fill:url(#SVGID_00000173859000358097808680000018024269824923120267_);}
	.st21{fill:url(#SVGID_00000030452668067543473420000017962725342557156492_);}
	.st22{fill:url(#SVGID_00000020390978344978852910000007823228912491295637_);}
	.st23{fill:url(#SVGID_00000126284685779922287300000017180747958956345769_);}
	.st24{fill:url(#SVGID_00000080179666695536001830000005172714580388990885_);}
	.st25{fill:url(#SVGID_00000092457142017655010900000003922307043003263379_);}
	.st26{fill:url(#SVGID_00000168076930836662384630000017594595724493341602_);}
	.st27{fill:url(#SVGID_00000027596611280490590630000007825584312671470216_);}
	.st28{fill:url(#SVGID_00000083773730173988760120000015545866574551003013_);}
	.st29{fill:url(#SVGID_00000181777527056087023580000016343303106564565144_);}
	.st30{fill:url(#SVGID_00000135687728355883228980000014888295751651113359_);}
	.st31{fill:url(#SVGID_00000016069939820856293360000001883594631306711458_);}
	.st32{fill:url(#SVGID_00000176026374886399556790000004233197762358128784_);}
	.st33{fill:url(#SVGID_00000054250537840814299510000010856634247232487322_);}
	.st34{fill:url(#SVGID_00000044171501469839075040000010143409289528983483_);}
	.st35{fill:url(#SVGID_00000100376549403024993210000011145252237713945771_);}
	.st36{fill:url(#SVGID_00000111887055198664996560000014602045095922428838_);}
	.st37{fill:url(#SVGID_00000154415037723741478800000011318582233790044545_);}
	.st38{fill:url(#SVGID_00000039829564897580817420000010574626049420283033_);}
	.st39{fill:url(#SVGID_00000111192574993990641410000011691226230864337595_);}
	.st40{fill:url(#SVGID_00000183212797935196855580000009954101226889334918_);}
	.st41{fill:url(#SVGID_00000153676301114036397630000014766678218149516957_);}
	.st42{fill:url(#SVGID_00000077294097116012829480000008226790907496832433_);}
	.st43{fill:url(#SVGID_00000099651935833384131100000011705203996032208002_);}
	.st44{fill:url(#SVGID_00000135651470310689136840000006519118819995640254_);}
	.st45{fill:url(#SVGID_00000142887218227145279630000000780965336095071421_);}
	.st46{fill:url(#SVGID_00000001644359795715924340000012866807176115922850_);}
	.st47{fill:url(#SVGID_00000135667122681657156660000016707619691039279767_);}
	.st48{fill:url(#SVGID_00000062152349653773096630000017821398024566626962_);}
	.st49{fill:url(#SVGID_00000088134524178307901960000010740090788124572046_);}
	.st50{fill:url(#SVGID_00000108996485687206462120000016539831790971353249_);}
	.st51{fill:url(#SVGID_00000083060360467053032370000008551425407290255277_);}
	.st52{fill:url(#SVGID_00000049910682588730733320000001315224276151565185_);}
	.st53{fill:url(#SVGID_00000048485909077963080320000008653716153364539548_);}
	.st54{fill:url(#SVGID_00000074426071947091478960000010605901527942339506_);}
	.st55{fill:url(#SVGID_00000042732213968721024940000011561182927542701955_);}
	.st56{fill:url(#SVGID_00000177475872670170663410000001020229442794767755_);}
	.st57{fill:url(#SVGID_00000177483879956910361680000000140904759650917303_);}
	.st58{fill:url(#SVGID_00000144335574609517453610000013026913567567419822_);}
</style>
<g>
	<linearGradient id="SVGID_1_" gradientUnits="userSpaceOnUse" x1="99.4863" y1="240" x2="435.5791" y2="240">
		<stop  offset="1.065558e-08" style="stop-color:#90D8D8"/>
		<stop  offset="0.1293" style="stop-color:#87D4D4"/>
		<stop  offset="0.3444" style="stop-color:#6DC9C9"/>
		<stop  offset="0.6187" style="stop-color:#44B8B7"/>
		<stop  offset="0.9384" style="stop-color:#0BA09E"/>
		<stop  offset="0.9944" style="stop-color:#009C99"/>
	</linearGradient>
	<path class="st1" d="M435.57,107.22c0.05-10.05-6.47-16.56-16.43-16.54c-101.31,0.14-202.62,0.08-303.93,0.09
		c-10.01,0-15.72,5.64-15.72,15.64c-0.02,62,0,124,0,185.99c0,1.66,0.07,3.3,0.62,4.92c2.13,6.26,7.17,9.78,14.53,9.78
		c35.51,0.03,71.02,0.02,106.53,0c2.25,0,4.49-0.18,6.74-0.27c0.07-1.31-0.02-2.49-0.45-3.38c-0.12-0.26-0.27-0.49-0.46-0.69
		c0.18,0.2,0.33,0.44,0.46,0.69c0.43,0.89,0.51,2.07,0.45,3.38c0.47,0.02,0.94,0.04,1.41,0.07c2.72,0.08,5.46,0.33,8.17,0.17
		c2.57-0.15,3.48,0.51,3.44,3.3c-0.17,11.87-0.15,23.75-0.01,35.63c0.03,2.65-0.61,3.34-3.36,3.33
		c-21.61-0.09-43.23,0.04-64.84,0.05c-4,0-7.12,1.73-9.61,4.62c-4.56,5.3-4.51,24.7-0.24,30.26c3.25,4.24,7.65,5.08,12.52,5.08
		c62.23-0.01,124.46,0,186.69-0.01c1.18,0,2.35-0.17,3.53-0.26c0.01-0.19-0.01-0.42-0.02-0.64c0.01,0.23,0.03,0.45,0.02,0.64
		c0.43-0.09,0.86-0.18,1.29-0.27v0c3.14,0.14,5.37-1.26,6.83-3.99c0,0,0.05-0.06,0.05-0.07c2.83-1.5,3.39-4.32,3.86-7.05
		c0.78-4.59,0.39-9.25,0.33-13.87c-0.12-9.27-5.46-14.43-14.72-14.44c-22.8-0.02-45.61-0.04-68.41,0.04
		c-2.72,0.01-3.64-0.68-3.59-3.58c0.19-11.52,0.23-23.04-0.01-34.56c-0.07-3.47,0.85-4.26,4.26-4.25
		c41.33,0.13,82.66-0.04,123.99,0.2c8.66,0.05,16.13-5.89,16.08-16.14C435.28,229.79,435.3,168.5,435.57,107.22z M228.64,300.98
		c-0.31,0.06-0.64,0.05-0.96,0.01C228.01,301.04,228.33,301.04,228.64,300.98L228.64,300.98z M235.69,296.07
		c-0.31-0.17-0.63-0.34-0.94-0.51C235.07,295.74,235.38,295.91,235.69,296.07c0,0,0.03-0.04,0.06-0.07
		C235.72,296.04,235.69,296.07,235.69,296.07c0.52,0.36,1.03,0.54,1.54,0.53C236.72,296.62,236.21,296.44,235.69,296.07z
		 M238.6,295.95c-0.35,0-0.7,0-1.05-0.01C237.89,295.95,238.24,295.95,238.6,295.95c0.12-0.12,0.24-0.24,0.36-0.36
		C238.84,295.71,238.72,295.83,238.6,295.95z M244.22,289.96c-0.16-0.02-0.32-0.03-0.48-0.04
		C243.9,289.93,244.06,289.94,244.22,289.96C244.22,289.96,244.22,289.96,244.22,289.96z M244.99,280.26
		c-0.51,0.83-0.68,1.65-0.49,2.32C244.31,281.91,244.48,281.09,244.99,280.26c0.16-0.31,0.31-0.61,0.47-0.92
		C245.31,279.65,245.15,279.96,244.99,280.26z M246.02,281.95c0.17,0.08,0.37,0.13,0.59,0.12
		C246.39,282.08,246.2,282.04,246.02,281.95z M248.57,277.74c0.23,0.03,0.48,0.09,0.74,0.19
		C249.05,277.83,248.8,277.77,248.57,277.74z M252.13,273.14c-1.02,0.9-1.52,1.72-1.54,2.48
		C250.61,274.86,251.11,274.03,252.13,273.14c0.13-0.12,0.25-0.25,0.38-0.37C252.39,272.89,252.26,273.01,252.13,273.14z
		 M255.53,274.44L255.53,274.44c0.05-0.64,0.11-1.29,0.17-1.93c-0.93,0-1.86,0-2.79,0.01c0.93,0,1.86,0,2.79-0.01
		C255.64,273.15,255.59,273.8,255.53,274.44z M416.93,253.55c0.01,3.22-0.78,4.18-4.07,4.17c-96.8-0.09-193.6-0.09-290.39,0
		c-3.55,0-4.49-0.86-4.47-4.5c0.14-46.32,0.09-92.64,0.09-138.96c0-4.89,0-4.89,5.07-4.89c48.1,0,96.2,0,144.31,0
		c48.34,0.01,96.68,0.05,145.02-0.08c3.71-0.01,4.46,1.03,4.45,4.57C416.81,160.44,416.82,206.99,416.93,253.55z"/>
	
		<linearGradient id="SVGID_00000104683732960455110830000002883132613025942437_" gradientUnits="userSpaceOnUse" x1="72.9371" y1="279.7038" x2="129.9884" y2="378.5197">
		<stop  offset="0" style="stop-color:#F18D1B"/>
		<stop  offset="0.4698" style="stop-color:#E5302C"/>
		<stop  offset="0.5842" style="stop-color:#D8292B"/>
		<stop  offset="0.8435" style="stop-color:#BE1D28"/>
		<stop  offset="1" style="stop-color:#B51827"/>
	</linearGradient>
	<circle style="fill:url(#SVGID_00000104683732960455110830000002883132613025942437_);" cx="101.46" cy="329.11" r="57.04"/>
	<g>
		<g>
			<path class="st7" d="M94.1,357.64c0-3.56,2.65-5.57,5.84-5.57c3.19,0,5.75,2.01,5.75,5.57c0,3.47-2.56,5.39-5.75,5.39
				C96.74,363.03,94.1,361.11,94.1,357.64z M97.75,344.77c-1.19-16.89-2.92-33.14-3.2-40.44c-0.18-4.93,2.74-6.12,5.57-6.12
				c2.65,0,5.3,1.1,5.21,6.03c-0.18,7.58-2.19,23.65-3.56,40.53c-0.09,0.82-1.1,1.19-2.01,1.19
				C98.84,345.95,97.93,345.59,97.75,344.77z"/>
		</g>
	</g>
</g>
</svg>
