<?xml version="1.0" encoding="utf-8"?>
<!-- Generator: Adobe Illustrator 28.0.0, SVG Export Plug-In . SVG Version: 6.00 Build 0)  -->
<svg width="1rem" height="1rem" version="1.1" id="Capa_1" xmlns="http://www.w3.org/2000/svg" xmlns:xlink="http://www.w3.org/1999/xlink" x="0px" y="0px"
	 viewBox="0 0 480 480" style="enable-background:new 0 0 480 480;" xml:space="preserve">
<style type="text/css">
	.st0{fill:#444444;}
	.st1{fill:url(#SVGID_1_);}
	.st2{fill:url(#SVGID_00000129203562151615857780000003376346643560362919_);}
	.st3{fill:url(#SVGID_00000122706320667818809630000014585731483165359777_);}
	.st4{fill:url(#SVGID_00000116939722092967735030000013387028029723897005_);}
	.st5{fill:url(#SVGID_00000142149134669638217820000009393399410562045577_);}
	.st6{fill:url(#SVGID_00000103976668470554253680000007630941514992316806_);}
	.st7{fill:#FFFFFF;}
	.st8{fill:#66CCCC;}
	.st9{fill:#0075BE;}
	.st10{fill:#005889;}
	.st11{fill:url(#SVGID_00000042696959868444790100000010234484424139403927_);}
	.st12{fill:url(#SVGID_00000070095153172517619040000011409193205398677174_);}
	.st13{fill:url(#SVGID_00000145739281654408295030000016062373560357854598_);}
	.st14{fill:url(#SVGID_00000141417257362256505410000000233104549144777102_);}
	.st15{fill:url(#SVGID_00000098198757763936454980000007385392062488753024_);}
	.st16{fill:url(#SVGID_00000157301550069565606150000008899789008083068601_);}
	.st17{fill:url(#SVGID_00000106133363617637147930000012817166243136072865_);}
	.st18{fill:url(#SVGID_00000000193730355558353590000008445158186888441499_);}
	.st19{fill:url(#SVGID_00000020377924590941430300000005894577240129345454_);}
	.st20{fill:url(#SVGID_00000074441799947416525870000017776762803718704034_);}
	.st21{fill:url(#SVGID_00000038372639018205734940000009923390449757483668_);}
	.st22{fill:url(#SVGID_00000044859977387547121600000001739096475869456269_);}
	.st23{fill:url(#SVGID_00000013901587485754725920000002690772740510223529_);}
	.st24{fill:url(#SVGID_00000054257562935237517280000015492652820241697461_);}
	.st25{fill:url(#SVGID_00000141433930907874175290000007035596465005478791_);}
	.st26{fill:url(#SVGID_00000036247364912055472600000014222743548139365787_);}
	.st27{fill:url(#SVGID_00000115491207789416549880000018008928299464504965_);}
	.st28{fill:url(#SVGID_00000031886824691090128660000016349515564548173470_);}
	.st29{fill:url(#SVGID_00000177458973893345863970000016042929252371201687_);}
	.st30{fill:url(#SVGID_00000159468306887095570660000012659357309735725243_);}
	.st31{fill:url(#SVGID_00000145016938841849866680000009738568442043174272_);}
	.st32{fill:url(#SVGID_00000152954991129625241650000015442724712239057050_);}
	.st33{fill:url(#SVGID_00000005974145429931198560000009277456090596294533_);}
	.st34{fill:url(#SVGID_00000170249272726359780440000012540668800578455463_);}
	.st35{fill:url(#SVGID_00000183247677301692214420000005525688224532764823_);}
	.st36{fill:url(#SVGID_00000173162171508502719580000003527084006099643543_);}
	.st37{fill:url(#SVGID_00000006702958941582677090000011069150352303281796_);}
	.st38{fill:url(#SVGID_00000011016557113914851980000003812957593078686608_);}
	.st39{fill:url(#SVGID_00000039132233392217847270000013856251506400483729_);}
	.st40{fill:url(#SVGID_00000138569015584624577790000000667623481498064831_);}
	.st41{fill:url(#SVGID_00000023999446083520686990000000775077496271790218_);}
	.st42{fill:url(#SVGID_00000148638455395105368600000010741290259590408371_);}
	.st43{fill:url(#SVGID_00000073690926246384696440000008879151383222229927_);}
	.st44{fill:url(#SVGID_00000067936182681723439000000005011709063776994482_);}
	.st45{fill:url(#SVGID_00000129922673719229215700000008484940992121119629_);}
	.st46{fill:url(#SVGID_00000170242346682003433630000004760182810035562377_);}
	.st47{fill:url(#SVGID_00000101795278649985937320000001610521812699669381_);}
	.st48{fill:url(#SVGID_00000059274544396726015880000001478474785365213095_);}
	.st49{fill:url(#SVGID_00000005947823431360926140000012892445161738219446_);}
	.st50{fill:url(#SVGID_00000032638612316516496310000001014799942642688653_);}
	.st51{fill:url(#SVGID_00000134961378251821002690000001592590612165436085_);}
	.st52{fill:url(#SVGID_00000089553559691431822470000000021788815534574010_);}
	.st53{fill:url(#SVGID_00000144308328199445681990000002294920502026100631_);}
	.st54{fill:url(#SVGID_00000005264482804145219440000011856181136551051698_);}
	.st55{fill:url(#SVGID_00000111174285317269153060000008246063453486680488_);}
	.st56{fill:url(#SVGID_00000093138801193291294190000014961078927154511254_);}
	.st57{fill:url(#SVGID_00000078748296835698502510000002929306166873232561_);}
	.st58{fill:url(#SVGID_00000104679990628495224740000011308625260760215710_);}
</style>
<g>
	<linearGradient id="SVGID_1_" gradientUnits="userSpaceOnUse" x1="71.9536" y1="240" x2="408.0464" y2="240">
		<stop  offset="1.065558e-08" style="stop-color:#90D8D8"/>
		<stop  offset="0.1293" style="stop-color:#87D4D4"/>
		<stop  offset="0.3444" style="stop-color:#6DC9C9"/>
		<stop  offset="0.6187" style="stop-color:#44B8B7"/>
		<stop  offset="0.9384" style="stop-color:#0BA09E"/>
		<stop  offset="0.9944" style="stop-color:#009C99"/>
	</linearGradient>
	<path class="st1" d="M408.04,107.22c0.05-10.05-6.47-16.56-16.43-16.54c-101.31,0.14-202.62,0.08-303.93,0.09
		c-10.01,0-15.72,5.64-15.72,15.64c-0.02,62,0,124,0,185.99c0,1.66,0.07,3.3,0.62,4.92c2.13,6.26,7.17,9.78,14.53,9.78
		c35.51,0.03,71.02,0.02,106.53,0c2.25,0,4.49-0.18,6.74-0.27c0.07-1.31-0.02-2.49-0.45-3.38c-0.12-0.26-0.27-0.49-0.46-0.69
		c0.18,0.2,0.33,0.44,0.46,0.69c0.43,0.89,0.51,2.07,0.45,3.38c0.47,0.02,0.94,0.04,1.41,0.07c2.72,0.08,5.46,0.33,8.17,0.17
		c2.57-0.15,3.48,0.51,3.44,3.3c-0.17,11.87-0.15,23.75-0.01,35.63c0.03,2.65-0.61,3.34-3.36,3.33
		c-21.61-0.09-43.23,0.04-64.84,0.05c-4,0-7.12,1.73-9.61,4.62c-4.56,5.3-4.51,24.7-0.24,30.26c3.25,4.24,7.65,5.08,12.52,5.08
		c62.23-0.01,124.46,0,186.69-0.01c1.18,0,2.35-0.17,3.53-0.26c0.01-0.19-0.01-0.42-0.02-0.64c0.01,0.23,0.03,0.45,0.02,0.64
		c0.43-0.09,0.86-0.18,1.29-0.27v0c3.14,0.14,5.37-1.26,6.83-3.99c0,0,0.05-0.06,0.05-0.07c2.83-1.5,3.39-4.32,3.86-7.05
		c0.78-4.59,0.39-9.25,0.33-13.87c-0.12-9.27-5.46-14.43-14.72-14.44c-22.8-0.02-45.61-0.04-68.41,0.04
		c-2.72,0.01-3.64-0.68-3.59-3.58c0.19-11.52,0.23-23.04-0.01-34.56c-0.07-3.47,0.85-4.26,4.26-4.25
		c41.33,0.13,82.66-0.04,123.99,0.2c8.66,0.05,16.13-5.89,16.08-16.14C407.75,229.79,407.77,168.5,408.04,107.22z M201.11,300.98
		c-0.31,0.06-0.64,0.05-0.96,0.01C200.48,301.04,200.8,301.04,201.11,300.98L201.11,300.98z M208.16,296.07
		c-0.31-0.17-0.63-0.34-0.94-0.51C207.53,295.74,207.85,295.91,208.16,296.07c0,0,0.03-0.04,0.06-0.07
		C208.19,296.04,208.16,296.07,208.16,296.07c0.52,0.36,1.03,0.54,1.54,0.53C209.19,296.62,208.68,296.44,208.16,296.07z
		 M211.06,295.95c-0.35,0-0.7,0-1.05-0.01C210.36,295.95,210.71,295.95,211.06,295.95c0.12-0.12,0.24-0.24,0.36-0.36
		C211.3,295.71,211.18,295.83,211.06,295.95z M216.69,289.96c-0.16-0.02-0.32-0.03-0.48-0.04
		C216.37,289.93,216.53,289.94,216.69,289.96C216.69,289.96,216.69,289.96,216.69,289.96z M217.46,280.26
		c-0.51,0.83-0.68,1.65-0.49,2.32C216.77,281.91,216.95,281.09,217.46,280.26c0.16-0.31,0.31-0.61,0.47-0.92
		C217.77,279.65,217.61,279.96,217.46,280.26z M218.49,281.95c0.17,0.08,0.37,0.13,0.59,0.12
		C218.86,282.08,218.66,282.04,218.49,281.95z M221.04,277.74c0.23,0.03,0.48,0.09,0.74,0.19
		C221.52,277.83,221.27,277.77,221.04,277.74z M224.6,273.14c-1.02,0.9-1.52,1.72-1.54,2.48
		C223.08,274.86,223.58,274.03,224.6,273.14c0.13-0.12,0.25-0.25,0.38-0.37C224.85,272.89,224.73,273.01,224.6,273.14z M228,274.44
		L228,274.44c0.05-0.64,0.11-1.29,0.17-1.93c-0.93,0-1.86,0-2.79,0.01c0.93,0,1.86,0,2.79-0.01
		C228.11,273.15,228.06,273.8,228,274.44z M389.4,253.55c0.01,3.22-0.78,4.18-4.07,4.17c-96.8-0.09-193.6-0.09-290.39,0
		c-3.55,0-4.49-0.86-4.47-4.5c0.14-46.32,0.09-92.64,0.09-138.96c0-4.89,0-4.89,5.07-4.89c48.1,0,96.2,0,144.31,0
		c48.34,0.01,96.68,0.05,145.02-0.08c3.71-0.01,4.46,1.03,4.45,4.57C389.28,160.44,389.29,206.99,389.4,253.55z"/>
</g>
</svg>
