<?xml version="1.0" encoding="utf-8"?>
<!-- Generator: Adobe Illustrator 28.0.0, SVG Export Plug-In . SVG Version: 6.00 Build 0)  -->
<svg width="1rem" height="1rem" version="1.1" id="Capa_1" xmlns="http://www.w3.org/2000/svg" xmlns:xlink="http://www.w3.org/1999/xlink" x="0px" y="0px"
	 viewBox="0 0 480 480" style="enable-background:new 0 0 480 480;" xml:space="preserve">
<style type="text/css">
	.st0{fill:#444444;}
	.st1{fill:url(#SVGID_1_);}
	.st2{fill:url(#SVGID_00000144315586876794016940000012738977621706742402_);}
	.st3{fill:url(#SVGID_00000018954733650024459880000006370884946638961308_);}
	.st4{fill:url(#SVGID_00000096754837433826882470000010129106794989662358_);}
	.st5{fill:url(#SVGID_00000049914912988449838750000003954829837328736131_);}
	.st6{fill:url(#SVGID_00000086673032540304350960000016812355276884290460_);}
	.st7{fill:#FFFFFF;}
	.st8{fill:#66CCCC;}
	.st9{fill:#0075BE;}
	.st10{fill:#005889;}
	.st11{fill:url(#SVGID_00000134241545343078124780000017597766039008537755_);}
	.st12{fill:url(#SVGID_00000075126943618596411440000001117025837509248408_);}
	.st13{fill:url(#SVGID_00000100359717075011800980000013015932029690496669_);}
	.st14{fill:url(#SVGID_00000143583233047679930860000003056631480693493891_);}
	.st15{fill:url(#SVGID_00000085213236899217495240000012577944997006147733_);}
	.st16{fill:url(#SVGID_00000019679565768377095280000016036646688762667692_);}
	.st17{fill:url(#SVGID_00000062190405525199458880000015991182450803389361_);}
	.st18{fill:url(#SVGID_00000067937677172820497060000016939199152301643440_);}
	.st19{fill:url(#SVGID_00000137119998641198091870000006493940334516898177_);}
	.st20{fill:url(#SVGID_00000074442516436466784270000001537934922879697037_);}
	.st21{fill:url(#SVGID_00000112602530645566075880000002816908503109122220_);}
	.st22{fill:url(#SVGID_00000145749320602773384670000006666370589154009530_);}
	.st23{fill:url(#SVGID_00000111176294310796809000000000493531066106566042_);}
	.st24{fill:url(#SVGID_00000035501050735250431480000000795357728849532060_);}
	.st25{fill:url(#SVGID_00000080174820067551743000000001538032449679822721_);}
	.st26{fill:url(#SVGID_00000030481130001713652980000005682577314001564544_);}
	.st27{fill:url(#SVGID_00000101821301791836913730000006591786737838385590_);}
	.st28{fill:url(#SVGID_00000093857203230853714360000000081227528308993416_);}
	.st29{fill:url(#SVGID_00000126306114702329707560000009954782252091920020_);}
	.st30{fill:url(#SVGID_00000010269453797504607380000016138866218022290057_);}
	.st31{fill:url(#SVGID_00000059311017308986262900000000025625085029678976_);}
	.st32{fill:url(#SVGID_00000158728927852935997720000009396907862153398457_);}
	.st33{fill:url(#SVGID_00000054975462567775813500000001856877445098049691_);}
	.st34{fill:url(#SVGID_00000052086047235095272350000001021262356198354874_);}
	.st35{fill:url(#SVGID_00000023265253151146469800000008957811209851030946_);}
	.st36{fill:url(#SVGID_00000107588215482373668060000015949575854755655334_);}
	.st37{fill:url(#SVGID_00000006667836535610778970000008943112878305645755_);}
	.st38{fill:url(#SVGID_00000026163171955008197540000008604568224544856475_);}
	.st39{fill:url(#SVGID_00000084527114773994824930000013760686226355150261_);}
	.st40{fill:url(#SVGID_00000026872611530151742710000014207571378377660344_);}
	.st41{fill:url(#SVGID_00000036951804333934045220000009251687749765778579_);}
	.st42{fill:url(#SVGID_00000150078759220241326540000010894416982211542946_);}
	.st43{fill:url(#SVGID_00000178892075570904076090000003448024599510140310_);}
	.st44{fill:url(#SVGID_00000163784988840108865720000003269782085631350423_);}
	.st45{fill:url(#SVGID_00000116199377589128797580000013033952302693295752_);}
	.st46{fill:url(#SVGID_00000170966077157031038440000018352584520543926151_);}
	.st47{fill:url(#SVGID_00000047747232157931212600000003435650189069668783_);}
	.st48{fill:url(#SVGID_00000080920886737131119590000014515885547327298740_);}
	.st49{fill:url(#SVGID_00000012442795517723709680000004010701306252783495_);}
	.st50{fill:url(#SVGID_00000150805002463910688980000000598390386318302891_);}
	.st51{fill:url(#SVGID_00000098915557552445393640000012266140557955119019_);}
	.st52{fill:url(#SVGID_00000152242817698044541380000009604466511233317308_);}
	.st53{fill:url(#SVGID_00000119807090777017085090000014415600378453920173_);}
	.st54{fill:url(#SVGID_00000011031114881370447320000009731916344094579360_);}
	.st55{fill:url(#SVGID_00000145741001046656066980000002152614973506874296_);}
	.st56{fill:url(#SVGID_00000034084379125887167020000005985470528757754525_);}
	.st57{fill:url(#SVGID_00000183218966189250206380000000456034404364504251_);}
	.st58{fill:url(#SVGID_00000018958149398844050940000000447350355946711199_);}
</style>
<g>
	<g>
		<linearGradient id="SVGID_1_" gradientUnits="userSpaceOnUse" x1="173.9692" y1="371.7099" x2="308.0746" y2="237.6045">
			<stop  offset="0" style="stop-color:#FED778"/>
			<stop  offset="0.149" style="stop-color:#FED26F"/>
			<stop  offset="0.3967" style="stop-color:#FEC355"/>
			<stop  offset="0.7105" style="stop-color:#FFAC2C"/>
			<stop  offset="1" style="stop-color:#FF9300"/>
		</linearGradient>
		<path class="st1" d="M240,336.16c-27.99,0-56.01,0.8-83.97-0.22c-30.44-1.11-40.13-18.07-26.95-45.82
			c12.36-26.03,34.2-41.88,59.94-52.79c57.7-24.47,133.78-2.17,160.57,46.81c18.7,34.19,8.83,51.49-30.15,52.09
			c-26.47,0.41-52.96,0.08-79.44,0.08C240,336.26,240,336.21,240,336.16z"/>
		
			<linearGradient id="SVGID_00000169546897725908601960000012815456846199988355_" gradientUnits="userSpaceOnUse" x1="199.1886" y1="187.4098" x2="283.2144" y2="103.384">
			<stop  offset="0" style="stop-color:#FED778"/>
			<stop  offset="0.149" style="stop-color:#FED26F"/>
			<stop  offset="0.3967" style="stop-color:#FEC355"/>
			<stop  offset="0.7105" style="stop-color:#FFAC2C"/>
			<stop  offset="1" style="stop-color:#FF9300"/>
		</linearGradient>
		<path style="fill:url(#SVGID_00000169546897725908601960000012815456846199988355_);" d="M239.78,207.04
			c-31.02-0.5-55.88-28.53-55.5-62.56c0.38-33.48,26.68-61.56,57.31-61.18c29.93,0.37,57.2,28.66,57.21,59.35
			C298.82,179.12,272.74,207.57,239.78,207.04z"/>
	</g>
	
		<linearGradient id="SVGID_00000138544842262840481690000008347497081299416492_" gradientUnits="userSpaceOnUse" x1="47.0019" y1="244.1673" x2="128.7531" y2="385.7644">
		<stop  offset="0" style="stop-color:#F18D1B"/>
		<stop  offset="0.4698" style="stop-color:#E5302C"/>
		<stop  offset="0.5842" style="stop-color:#D8292B"/>
		<stop  offset="0.8435" style="stop-color:#BE1D28"/>
		<stop  offset="1" style="stop-color:#B51827"/>
	</linearGradient>
	<circle style="fill:url(#SVGID_00000138544842262840481690000008347497081299416492_);" cx="87.88" cy="314.97" r="81.74"/>
	<g>
		<path class="st7" d="M79.57,355.84c0-5.1,3.79-7.98,8.37-7.98c4.58,0,8.24,2.88,8.24,7.98c0,4.98-3.66,7.72-8.24,7.72
			C83.36,363.56,79.57,360.82,79.57,355.84z M84.8,337.4c-1.7-24.2-4.19-47.49-4.58-57.96c-0.26-7.06,3.92-8.76,7.98-8.76
			c3.79,0,7.59,1.57,7.45,8.63c-0.26,10.86-3.14,33.88-5.1,58.08c-0.13,1.18-1.57,1.7-2.88,1.7S85.07,338.58,84.8,337.4z"/>
	</g>
	
		<linearGradient id="SVGID_00000031201574185445276780000008458561251788437927_" gradientUnits="userSpaceOnUse" x1="351.2469" y1="244.1673" x2="432.998" y2="385.7644">
		<stop  offset="5.327789e-09" style="stop-color:#E6E905"/>
		<stop  offset="1" style="stop-color:#7AF603"/>
	</linearGradient>
	<circle style="fill:url(#SVGID_00000031201574185445276780000008458561251788437927_);" cx="392.12" cy="314.97" r="81.74"/>
	<g>
		<path class="st7" d="M340.61,298.44c0.35-1.64,0.85-3.21,1.99-4.52c2.06-2.36,5.31-3.33,8.41-2.27c3.09,1.06,4.88,3.28,5.31,6.55
			c0.3,2.21-0.39,4.15-1.73,5.98c5.89,4.91,11.75,9.79,17.73,14.77c5.45-10.9,10.85-21.7,16.29-32.57
			c-2.71-1.62-4.31-3.91-4.33-7.11c-0.02-2.23,0.8-4.14,2.4-5.67c3.33-3.18,8.57-2.83,11.52,0.66c2.53,3,2.91,8.83-2.54,12.14
			c5.39,10.79,10.79,21.59,16.27,32.55c5.95-4.96,11.83-9.85,17.45-14.54c-0.53-1.68-1.21-3.12-1.41-4.63
			c-0.41-3.02,0.85-5.46,3.32-7.17c2.44-1.69,5.13-1.89,7.82-0.61c2.43,1.15,3.88,3.11,4.36,5.77c0.04,0.22,0.12,0.44,0.18,0.66
			c0,0.47,0,0.94,0,1.41c-0.06,0.19-0.15,0.37-0.18,0.56c-0.6,3.1-2.39,5.23-5.4,6.14c-1.25,0.38-2.62,0.34-4.02,0.5
			c-0.08,0.35-0.18,0.8-0.28,1.26c-2.06,9.83-4.13,19.66-6.16,29.49c-0.15,0.73-0.43,0.88-1.12,0.88c-22.9-0.02-45.8-0.02-68.71,0
			c-0.68,0-0.97-0.15-1.12-0.88c-1.76-8.56-3.56-17.11-5.35-25.66c-0.37-1.76-0.74-3.51-1.11-5.24c-0.43,0-0.73-0.02-1.03,0
			c-2.91,0.2-5.31-0.84-6.95-3.22c-0.77-1.12-1.08-2.55-1.6-3.84C340.61,299.38,340.61,298.91,340.61,298.44z"/>
		<path class="st7" d="M356.57,346.73c23.73,0,47.36,0,71.16,0c0,0.68,0,1.33,0,1.99c0,1.41,0.04,2.82-0.03,4.22
			c-0.13,2.86-2.37,5.19-5.21,5.47c-0.5,0.05-1,0.09-1.5,0.09c-19.24,0-38.49,0-57.73,0.01c-2.18,0-4.17-0.47-5.48-2.34
			c-0.56-0.8-1.08-1.78-1.16-2.72C356.46,351.26,356.57,349.05,356.57,346.73z"/>
	</g>
</g>
</svg>
