<?xml version="1.0" encoding="utf-8"?>
<!-- Generator: Adobe Illustrator 28.0.0, SVG Export Plug-In . SVG Version: 6.00 Build 0)  -->
<svg width="1rem" height="1rem" version="1.1" id="Capa_1" xmlns="http://www.w3.org/2000/svg" xmlns:xlink="http://www.w3.org/1999/xlink" x="0px" y="0px"
	 viewBox="0 0 480 480" style="enable-background:new 0 0 480 480;" xml:space="preserve">
<style type="text/css">
	.st0{fill:#444444;}
	.st1{fill:url(#SVGID_1_);}
	.st2{fill:url(#SVGID_00000023263301358661105180000000550041579204359821_);}
	.st3{fill:url(#SVGID_00000084529620215951439670000010898979645995384226_);}
	.st4{fill:url(#SVGID_00000133488390639717524070000005128374041163304068_);}
	.st5{fill:url(#SVGID_00000078020629041796106000000010058778218626725541_);}
	.st6{fill:url(#SVGID_00000148627212620124023030000004719115397563115908_);}
	.st7{fill:#FFFFFF;}
	.st8{fill:#66CCCC;}
	.st9{fill:#0075BE;}
	.st10{fill:#005889;}
	.st11{fill:url(#SVGID_00000021116504298643863320000009871316761505345169_);}
	.st12{fill:url(#SVGID_00000039092210643731173690000002568805197423740077_);}
	.st13{fill:url(#SVGID_00000145032961748769967260000007069944662390202047_);}
	.st14{fill:url(#SVGID_00000171690819075863245770000009676618491766311081_);}
	.st15{fill:url(#SVGID_00000179604496667150267400000013348458090335146156_);}
	.st16{fill:url(#SVGID_00000029732722890400490170000016737395735454529179_);}
	.st17{fill:url(#SVGID_00000044862210875020723260000005297789452128304303_);}
	.st18{fill:url(#SVGID_00000151508375228129602880000011381620648577903273_);}
	.st19{fill:url(#SVGID_00000008870316956245847520000015560789270318924197_);}
	.st20{fill:url(#SVGID_00000041999092207141940400000016911364325261574541_);}
	.st21{fill:url(#SVGID_00000032651060661797070190000014496375084139815314_);}
	.st22{fill:url(#SVGID_00000121976341125152612700000015645863357787187354_);}
	.st23{fill:url(#SVGID_00000000942638477952435160000006861657273322858900_);}
	.st24{fill:url(#SVGID_00000062890243972526206830000010320964219253845935_);}
	.st25{fill:url(#SVGID_00000003078170136697304900000002092009909000786620_);}
	.st26{fill:url(#SVGID_00000162344528437693177640000012002071033063884458_);}
	.st27{fill:url(#SVGID_00000132773130153180209430000010493457043532918164_);}
	.st28{fill:url(#SVGID_00000005959064012929308490000007356097737486593461_);}
	.st29{fill:url(#SVGID_00000021110490303715928030000017794846718813507463_);}
	.st30{fill:url(#SVGID_00000037655380697038033540000008254187712131817613_);}
	.st31{fill:url(#SVGID_00000142888462406692841840000005971863625954326961_);}
	.st32{fill:url(#SVGID_00000168101779308399653780000014577869218987675068_);}
	.st33{fill:url(#SVGID_00000147901020063448809660000003428898305001465220_);}
	.st34{fill:url(#SVGID_00000067944870303171379840000017184064353204494478_);}
	.st35{fill:url(#SVGID_00000111896979451438801850000007280862955703869825_);}
	.st36{fill:url(#SVGID_00000175291712505823499420000007122473789093748927_);}
	.st37{fill:url(#SVGID_00000105400743794347602280000008445295171213193901_);}
	.st38{fill:url(#SVGID_00000057125977640008493550000007065168793877855642_);}
	.st39{fill:url(#SVGID_00000173870177514044892220000007028912238042795199_);}
	.st40{fill:url(#SVGID_00000016053831623084741910000008045946068724203949_);}
	.st41{fill:url(#SVGID_00000002362719651766376600000016264056750561581218_);}
	.st42{fill:url(#SVGID_00000097494462174163349230000014863777328581799040_);}
	.st43{fill:url(#SVGID_00000161616233373117265350000015687236408412855456_);}
	.st44{fill:url(#SVGID_00000096741066885099133040000006007355850090532225_);}
	.st45{fill:url(#SVGID_00000149354050612247114870000010382182330137481354_);}
	.st46{fill:url(#SVGID_00000154393338243954466390000003681733020215366839_);}
	.st47{fill:url(#SVGID_00000070076100012735604440000006785899894869631920_);}
	.st48{fill:url(#SVGID_00000171699527898934282460000003769348715266573200_);}
	.st49{fill:url(#SVGID_00000055664696507415265060000004390593157969555354_);}
	.st50{fill:url(#SVGID_00000163040740397300304770000011102362499329405105_);}
	.st51{fill:url(#SVGID_00000182529079246348356560000011044404481167747207_);}
	.st52{fill:url(#SVGID_00000031180934928873131450000015642847734080225715_);}
	.st53{fill:url(#SVGID_00000140731784451876473200000003493810230427406742_);}
	.st54{fill:url(#SVGID_00000171710801494498707240000012499870335304768135_);}
	.st55{fill:url(#SVGID_00000003785741776871874700000005015810638261407123_);}
	.st56{fill:url(#SVGID_00000137848349478293344430000011642544125648036234_);}
	.st57{fill:url(#SVGID_00000093175298967631825000000011334596744451781022_);}
	.st58{fill:url(#SVGID_00000090981113307668955740000013219969202932668551_);}
</style>
<g>
	<g>
		<linearGradient id="SVGID_1_" gradientUnits="userSpaceOnUse" x1="115.3725" y1="371.7099" x2="249.478" y2="237.6045">
			<stop  offset="0" style="stop-color:#FED778"/>
			<stop  offset="0.149" style="stop-color:#FED26F"/>
			<stop  offset="0.3967" style="stop-color:#FEC355"/>
			<stop  offset="0.7105" style="stop-color:#FFAC2C"/>
			<stop  offset="1" style="stop-color:#FF9300"/>
		</linearGradient>
		<path class="st1" d="M181.4,336.16c-27.99,0-56.01,0.8-83.97-0.22c-30.44-1.11-40.13-18.07-26.95-45.82
			c12.36-26.03,34.2-41.88,59.94-52.79c57.7-24.47,133.78-2.17,160.57,46.81c18.7,34.19,8.83,51.49-30.15,52.09
			c-26.47,0.41-52.96,0.08-79.44,0.08C181.4,336.26,181.4,336.21,181.4,336.16z"/>
		
			<linearGradient id="SVGID_00000065781882643065913120000013425378883537512327_" gradientUnits="userSpaceOnUse" x1="140.592" y1="187.4098" x2="224.6177" y2="103.384">
			<stop  offset="0" style="stop-color:#FED778"/>
			<stop  offset="0.149" style="stop-color:#FED26F"/>
			<stop  offset="0.3967" style="stop-color:#FEC355"/>
			<stop  offset="0.7105" style="stop-color:#FFAC2C"/>
			<stop  offset="1" style="stop-color:#FF9300"/>
		</linearGradient>
		<path style="fill:url(#SVGID_00000065781882643065913120000013425378883537512327_);" d="M181.18,207.04
			c-31.02-0.5-55.88-28.53-55.5-62.56C126.07,111,152.37,82.92,183,83.3c29.93,0.37,57.2,28.66,57.21,59.35
			C240.23,179.12,214.14,207.57,181.18,207.04z"/>
	</g>
	
		<linearGradient id="SVGID_00000072242619200260194060000002061439375389161129_" gradientUnits="userSpaceOnUse" x1="292.6503" y1="244.1673" x2="374.4014" y2="385.7644">
		<stop  offset="5.327789e-09" style="stop-color:#E6E905"/>
		<stop  offset="1" style="stop-color:#7AF603"/>
	</linearGradient>
	<circle style="fill:url(#SVGID_00000072242619200260194060000002061439375389161129_);" cx="333.53" cy="314.97" r="81.74"/>
	<g>
		<path class="st7" d="M282.01,298.44c0.35-1.64,0.85-3.21,1.99-4.52c2.06-2.36,5.31-3.33,8.41-2.27c3.09,1.06,4.88,3.28,5.31,6.55
			c0.3,2.21-0.39,4.15-1.73,5.98c5.89,4.91,11.75,9.79,17.73,14.77c5.45-10.9,10.85-21.7,16.29-32.57
			c-2.71-1.62-4.31-3.91-4.33-7.11c-0.02-2.23,0.8-4.14,2.4-5.67c3.33-3.18,8.57-2.83,11.52,0.66c2.53,3,2.91,8.83-2.54,12.14
			c5.39,10.79,10.79,21.59,16.27,32.55c5.95-4.96,11.83-9.85,17.45-14.54c-0.53-1.68-1.21-3.12-1.41-4.63
			c-0.41-3.02,0.85-5.46,3.32-7.17c2.44-1.69,5.13-1.89,7.82-0.61c2.43,1.15,3.88,3.11,4.36,5.77c0.04,0.22,0.12,0.44,0.18,0.66
			c0,0.47,0,0.94,0,1.41c-0.06,0.19-0.15,0.37-0.18,0.56c-0.6,3.1-2.39,5.23-5.4,6.14c-1.25,0.38-2.62,0.34-4.02,0.5
			c-0.08,0.35-0.18,0.8-0.28,1.26c-2.06,9.83-4.13,19.66-6.16,29.49c-0.15,0.73-0.43,0.88-1.12,0.88c-22.9-0.02-45.8-0.02-68.71,0
			c-0.68,0-0.97-0.15-1.12-0.88c-1.76-8.56-3.56-17.11-5.35-25.66c-0.37-1.76-0.74-3.51-1.11-5.24c-0.43,0-0.73-0.02-1.03,0
			c-2.91,0.2-5.31-0.84-6.95-3.22c-0.77-1.12-1.08-2.55-1.6-3.84C282.01,299.38,282.01,298.91,282.01,298.44z"/>
		<path class="st7" d="M297.97,346.73c23.73,0,47.36,0,71.16,0c0,0.68,0,1.33,0,1.99c0,1.41,0.04,2.82-0.03,4.22
			c-0.13,2.86-2.37,5.19-5.21,5.47c-0.5,0.05-1,0.09-1.5,0.09c-19.24,0-38.49,0-57.73,0.01c-2.18,0-4.17-0.47-5.48-2.34
			c-0.56-0.8-1.08-1.78-1.16-2.72C297.86,351.26,297.97,349.05,297.97,346.73z"/>
	</g>
</g>
</svg>
